<?xml version="1.0" encoding="UTF-8" standalone="no"?>
<!-- Created with Inkscape (http://www.inkscape.org/) -->

<svg
   xmlns:dc="http://purl.org/dc/elements/1.1/"
   xmlns:cc="http://creativecommons.org/ns#"
   xmlns:rdf="http://www.w3.org/1999/02/22-rdf-syntax-ns#"
   xmlns:svg="http://www.w3.org/2000/svg"
   xmlns="http://www.w3.org/2000/svg"
   xmlns:sodipodi="http://sodipodi.sourceforge.net/DTD/sodipodi-0.dtd"
   xmlns:inkscape="http://www.inkscape.org/namespaces/inkscape"
   id="svg4232"
   version="1.1"
   inkscape:version="0.91 r13725"
   width="417.62253"
   height="640.98016"
   viewBox="0 0 417.62253 640.98016"
   sodipodi:docname="ComicCharacter249.svg">
  <metadata
     id="metadata4238">
    <rdf:RDF>
      <cc:Work
         rdf:about="">
        <dc:format>image/svg+xml</dc:format>
        <dc:type
           rdf:resource="http://purl.org/dc/dcmitype/StillImage" />
        <dc:title></dc:title>
      </cc:Work>
    </rdf:RDF>
  </metadata>
  <defs
     id="defs4236" />
  <sodipodi:namedview
     pagecolor="#ffffff"
     bordercolor="#666666"
     borderopacity="1"
     objecttolerance="10"
     gridtolerance="10"
     guidetolerance="10"
     inkscape:pageopacity="0"
     inkscape:pageshadow="2"
     inkscape:window-width="1600"
     inkscape:window-height="837"
     id="namedview4234"
     showgrid="false"
     inkscape:zoom="1.0452742"
     inkscape:cx="208.81126"
     inkscape:cy="320.49008"
     inkscape:window-x="-8"
     inkscape:window-y="-8"
     inkscape:window-maximized="1"
     inkscape:current-layer="svg4232" />
  <path
     style="fill:#000000"
     d="m 291.39729,639.04745 c -14.98892,-4.76284 -29.57242,-10.08823 -32.73271,-11.95283 -1.92826,-1.13771 -5.4878,-2.54763 -7.91008,-3.13317 -2.42227,-0.58553 -5.72093,-1.85248 -7.33033,-2.81544 -1.60942,-0.96295 -4.43513,-1.75083 -6.27935,-1.75083 -1.84422,0 -3.61413,-0.42232 -3.93314,-0.93848 -0.319,-0.51616 -2.34993,-0.95345 -4.51316,-0.97174 -2.16322,-0.0183 -4.98892,-0.63679 -6.27933,-1.37445 -1.29041,-0.73767 -3.8243,-1.38666 -5.63087,-1.44222 -6.57016,-0.20204 -11.43073,-10.28875 -4.95793,-10.28875 3.43679,0 11.52728,-8.51918 11.52728,-12.13809 0,-2.18581 -0.48696,-2.74033 -2.81544,-3.20602 -2.66144,-0.53229 -2.81543,-0.81074 -2.81543,-5.09124 0,-2.49049 0.39614,-4.92936 0.8803,-5.41971 1.78497,-1.80777 7.30969,-16.05357 7.98881,-20.59958 0.38555,-2.58082 1.67703,-8.70438 2.86996,-13.60793 1.19293,-4.90354 2.87461,-12.71637 3.73708,-17.36183 0.86247,-4.64546 2.58979,-13.56253 3.83848,-19.8157 1.2487,-6.25317 2.27036,-12.63816 2.27036,-14.18885 0,-1.5507 0.64688,-6.52898 1.43753,-11.06284 1.43444,-8.22575 1.43277,-8.25063 -0.77867,-11.61928 -1.2189,-1.85674 -2.93919,-6.27788 -3.82287,-9.82476 -0.88368,-3.54688 -2.39512,-7.99431 -3.35876,-9.88319 -0.96363,-1.88887 -3.09712,-8.91128 -4.74109,-15.60535 -2.87513,-11.70728 -3.98381,-14.51723 -5.72784,-14.51723 -1.09436,0 -5.09736,8.04021 -6.38643,12.82742 -1.63407,6.06845 -7.41528,18.13357 -8.97599,18.73247 -0.7751,0.29743 -3.48828,0.042 -6.0293,-0.56754 -5.52816,-1.32619 -6.04162,-2.54973 -4.73851,-11.29169 2.5962,-17.41682 3.57827,-25.83196 4.13364,-35.42016 0.53582,-9.25068 0.42813,-10.55787 -0.86982,-10.55787 -2.41998,0 -3.0425,3.26083 -5.11929,26.81568 -2.6896,30.5052 -2.41293,29.21401 -6.73199,31.41743 -4.58611,2.33966 -5.7126,2.30045 -8.10567,-0.28212 -2.35113,-2.53731 -3.58821,-6.97311 -4.89343,-17.54633 -1.47726,-11.96688 -2.8619,-11.72014 -2.8619,0.50997 0,10.47694 2.19775,23.72541 5.31025,32.01122 2.74315,7.30256 0.62628,17.96608 -9.92871,50.0147 -4.98264,15.12905 -9.01862,27.76159 -14.63376,45.8034 l -3.30229,10.61048 1.48593,5.34363 c 3.44908,12.40334 3.42733,11.70509 0.3447,11.06967 -8.9742,-1.84987 -8.36893,-1.894 -8.36893,0.61023 0,3.21805 3.02111,6.74846 8.25023,9.64108 2.43057,1.34453 6.31964,4.56977 8.64237,7.16719 15.05914,16.84006 16.99641,17.97467 38.47758,22.53547 6.15664,1.30715 6.5869,1.51389 6.05193,2.90796 -0.30208,0.78721 -3.6473,1.73431 -8.84668,2.50469 -13.1771,1.95241 -20.52173,0.50968 -42.72141,-8.39192 -21.12523,-8.47077 -22.92688,-8.83691 -27.14739,-5.51705 -2.01454,1.58463 -3.43993,1.90342 -6.98682,1.56261 -6.29132,-0.60451 -13.17982,-4.26235 -14.92706,-7.92634 -1.65646,-3.47364 -1.41258,-3.88741 9.32892,-15.82744 5.56194,-6.18254 8.00263,-10.6819 7.1687,-13.21533 -0.47723,-1.44977 2.16768,-8.99554 5.88614,-16.79282 6.36864,-13.35451 11.36005,-26.08361 13.61604,-34.72367 2.64557,-10.13208 10.71714,-34.25295 13.11695,-39.19833 1.46961,-3.02849 1.57069,-4.24113 0.70398,-8.4463 -0.81831,-3.97033 -0.73954,-5.59437 0.41157,-8.48514 1.29458,-3.25113 1.27265,-4.13257 -0.24215,-9.7287 -0.91615,-3.38452 -1.80772,-7.82851 -1.98127,-9.87553 -0.17355,-2.04702 -1.55068,-8.64929 -3.06027,-14.67172 -1.50959,-6.02242 -3.04076,-12.85027 -3.4026,-15.173 -0.36184,-2.32274 -1.28967,-6.54588 -2.06186,-9.38478 -3.49406,-12.84579 -4.00238,-16.11262 -4.01615,-25.81112 -0.0106,-7.47668 -0.53261,-12.13742 -1.89161,-16.88961 -1.15413,-4.03578 -1.87696,-9.37681 -1.87696,-13.86901 0,-8.29249 -0.60546,-9.00395 -6.35629,-7.46899 -1.92374,0.51347 -6.66508,1.78246 -10.5363,2.81997 -3.87122,1.03752 -8.51669,2.15603 -10.32326,2.48559 -2.20752,0.4027 -5.74672,2.74145 -10.792489,7.13184 -4.129301,3.59295 -9.690954,7.8256 -12.359229,9.40588 -2.668275,1.58028 -5.996886,4.37503 -7.396913,6.21056 -1.400028,1.83553 -3.926225,3.91423 -5.61377,4.61934 -1.687546,0.7051 -3.956331,2.71892 -5.041745,4.47516 -1.121827,1.81515 -3.89557,4.17526 -6.427418,5.46895 -8.20295,4.19139 -22.754252,14.19499 -22.754252,15.6429 0,2.97721 4.002762,9.53099 6.870549,11.24923 4.326938,2.5925 15.914689,4.14306 25.282117,3.38298 9.03148,-0.73281 10.244458,0.0959 7.278621,4.97285 -5.081118,8.35522 -28.764344,11.4906 -41.781135,5.53132 -6.474971,-2.96434 -8.954465,-5.15793 -13.235642,-11.70945 -4.351386,-6.65896 -9.753405,-17.33338 -9.753405,-19.27278 0,-2.85234 -4.4973743,-8.77052 -7.4460836,-9.79844 -3.5655134,-1.24295 -5.38801766,-4.73198 -3.91219919,-7.48957 0.56926589,-1.06368 1.04592399,-2.70078 1.05924009,-3.638 0.02652,-1.86654 5.7818592,-4.9887 9.1960807,-4.9887 2.247154,0 9.54926,6.09551 9.54926,7.97135 0,0.65098 0.657872,1.72959 1.461937,2.3969 0.804065,0.66732 2.049461,2.61944 2.767545,4.33806 0.718085,1.71862 1.696377,3.12476 2.173983,3.12476 2.982655,0 10.524015,-3.74569 20.366016,-10.11552 1.019747,-0.65998 3.058806,-1.92693 4.53124,-2.81543 8.139596,-4.9116 23.211952,-15.00235 26.792781,-17.93742 4.156816,-3.40718 10.162087,-7.75053 15.811609,-11.43585 2.471997,-1.61255 3.050052,-2.60626 3.050052,-5.24329 0,-3.81662 -1.361243,-6.67764 -4.263262,-8.96036 -1.148522,-0.90343 -2.767293,-3.33976 -3.59727,-5.41408 -0.829975,-2.07431 -1.919922,-3.77148 -2.422103,-3.77148 -1.71073,0 -3.145257,-4.16128 -3.82389,-11.09236 -0.485458,-4.95813 -1.249636,-7.62521 -2.69611,-9.40982 -1.110246,-1.36979 -2.602103,-3.75746 -3.315238,-5.30595 -0.713134,-1.54849 -2.119888,-3.87122 -3.126119,-5.16162 -2.57205,-3.29844 -4.499206,-7.25083 -6.855941,-14.06081 -1.752056,-5.06271 -1.883013,-6.3895 -0.940994,-9.53367 1.366394,-4.56062 5.623921,-9.49445 9.974503,-11.55893 6.746378,-3.20137 18.956445,-10.93257 27.166524,-17.20138 8.79454,-6.71506 17.59959,-12.79514 29.56205,-20.41321 10.46337,-6.66339 14.07716,-10.38912 14.07716,-14.51318 0,-1.85667 -0.39494,-3.77695 -0.87765,-4.26731 -1.27024,-1.29036 -4.75321,-14.40756 -4.75321,-17.90105 0,-1.63354 0.82,-5.65401 1.82223,-8.93439 1.76651,-5.78196 4.74711,-23.51526 4.74711,-28.24329 0,-2.15823 -0.40394,-2.36665 -5.47869,-2.82682 -9.97678,-0.90466 -15.12158,-5.1461 -18.08782,-14.91181 -1.07112,-3.52639 -2.01366,-9.15009 -2.09455,-12.49712 -0.13267,-5.48928 0.10649,-6.33966 2.44106,-8.67964 2.33741,-2.34282 3.13293,-2.56713 8.21168,-2.31543 5.42009,0.26861 5.62354,0.1954 5.62354,-2.02384 0,-1.64851 -0.6405,-2.4633 -2.25488,-2.86848 -6.37705,-1.60054 -16.7619,-16.770985 -17.94108,-26.208759 -0.59869,-4.791778 -0.45477,-5.418111 1.75213,-7.625007 3.69904,-3.699041 6.79237,-3.147462 15.46293,2.757228 8.3325,5.674468 10.20908,6.211494 10.65807,3.050052 1.0617,-7.475555 -2.50543,-45.773153 -5.37719,-57.730772 -1.67151,-6.95999 -1.05951,-8.694589 4.06613,-11.524705 1.91835,-1.059215 4.5437,-2.531342 5.8341,-3.2713942 4.9108,-2.8163591 11.62524,-5.2897098 16.52488,-6.0871443 2.798,-0.4553874 5.47487,-1.0675178 5.94858,-1.3602899 0.47372,-0.2927722 5.07397,-0.9337002 10.22279,-1.42428431 7.72598,-0.73613891 11.46712,-0.57989796 21.41396,0.89430991 13.2122,1.958164 19.71899,3.8991381 29.4143,8.7742708 l 2.34619,1.179748 0.46924,30.623118 c 0.25808,16.842716 0.71307,30.866369 1.01107,31.163674 0.298,0.297305 2.56952,-1.402324 5.04783,-3.776954 4.70441,-4.507615 10.75109,-7.815676 14.35029,-7.850852 1.15987,-0.01134 3.85142,1.553688 5.98122,3.477833 l 3.87237,3.498444 -0.57082,6.112789 c -0.37491,4.014809 -1.21265,6.920831 -2.44091,8.467144 -1.02854,1.294896 -2.59368,3.832458 -3.47807,5.639027 -0.8844,1.80657 -4.46436,6.119165 -7.95546,9.583545 -9.69624,9.622009 -11.79465,14.816869 -5.98514,14.816869 3.84779,0 6.02557,2.63206 6.76479,8.17592 0.49683,3.726 -2.07281,18.16702 -3.3838,19.01656 -1.75316,1.13607 -1.94254,4.92741 -0.49488,9.90719 1.00741,3.46539 1.33407,6.71709 0.93925,9.3499 -1.42404,9.49616 -14.81036,23.94836 -29.55964,31.91331 -3.69135,1.99341 -5.65769,3.77445 -6.73473,6.1001 -3.17323,6.8519 -3.13792,7.31005 0.85262,11.06292 5.74427,5.40213 6.72953,6.10535 12.76966,9.11435 3.64572,1.81617 6.66471,4.18708 8.50607,6.68007 2.8869,3.90854 8.53904,7.82671 18.80859,13.03847 3.09698,1.5717 7.9536,4.70387 10.7925,6.96038 6.0326,4.79502 11.32094,7.31792 19.18483,9.15244 3.48929,0.814 6.64532,2.25711 8.20581,3.75216 2.47019,2.36659 2.78594,2.41735 12.2076,1.96238 8.81,-0.42542 10.61499,-0.85472 20.25638,-4.81773 5.8215,-2.39288 11.94507,-4.35706 13.60792,-4.36483 1.66286,-0.008 4.71264,-0.60591 6.77729,-1.3292 2.06465,-0.72329 4.88214,-1.09309 6.26109,-0.82176 1.99785,0.39309 3.3324,-0.2766 6.56935,-3.29653 l 4.06216,-3.78983 -0.25636,-6.18784 c -0.28039,-6.76789 0.80424,-9.8996 3.4286,-9.8996 2.55953,0 4.64015,2.86284 5.36217,7.37813 0.3557,2.22444 1.13361,4.23126 1.72867,4.45961 1.62985,0.62543 14.09997,-4.7802 20.82465,-9.02722 4.42571,-2.79508 6.91324,-3.749 9.77629,-3.749 3.55197,0 3.79069,0.15845 3.18118,2.11158 -0.36244,1.16136 -0.9635,2.32273 -1.3357,2.58081 -0.3722,0.25808 -4.11611,2.73963 -8.31981,5.51457 -4.20369,2.77493 -7.64308,5.46812 -7.64308,5.98488 0,0.58427 1.8631,0.71179 4.92701,0.33722 17.45284,-2.13366 22.28884,-1.87474 22.28884,1.19333 0,2.56767 -3.2685,6.25698 -6.77216,7.64403 -1.69502,0.67104 -3.71533,1.72728 -4.48957,2.34719 -0.77425,0.6199 -2.56908,1.40302 -3.98853,1.74027 -3.10757,0.73831 -3.42427,3.14251 -0.46924,3.56218 2.99015,0.42467 3.31452,4.00316 0.52674,5.81123 -3.45266,2.23929 -16.81667,2.30122 -24.40866,0.1131 l -6.28546,-1.81156 -6.59631,3.19109 c -5.87273,2.84104 -6.84629,3.05729 -8.87531,1.9714 -3.67178,-1.96508 -4.54307,-0.60836 -3.83792,5.97621 0.82079,7.66441 -0.35662,8.9796 -8.03884,8.9796 -4.6554,0 -5.69751,-0.31146 -6.58393,-1.96774 -1.17045,-2.18703 -0.71282,-2.19953 -17.31324,0.473 -5.16163,0.83098 -12.34098,1.97475 -15.95412,2.54172 -3.61314,0.56697 -8.74592,1.61912 -11.40617,2.33813 -6.87395,1.85787 -9.4007,1.65795 -17.77682,-1.40651 -11.43744,-4.18445 -11.99002,-4.4454 -13.89781,-6.56329 -2.57366,-2.85706 -6.00506,-2.59135 -7.20233,0.55771 -0.53164,1.39831 -3.05508,6.67528 -5.60764,11.72662 -2.55258,5.05133 -4.64104,9.64985 -4.64104,10.21892 0,0.56907 2.45075,3.29949 5.44611,6.0676 2.99536,2.7681 6.43692,7.01682 7.64791,9.4416 2.10748,4.21983 2.17627,4.99533 1.60577,18.10256 -0.32782,7.53163 -1.25836,16.22776 -2.06788,19.32474 -0.80951,3.09697 -1.81937,9.38952 -2.24412,13.98344 -0.65806,7.11719 -1.34457,9.45346 -4.64156,15.79569 -2.12809,4.0937 -3.86927,8.60138 -3.86927,10.01705 0,3.55606 2.68799,21.52088 3.73446,24.95877 0.47135,1.54848 1.34994,5.56048 1.95242,8.91553 1.85387,10.32357 7.2202,26.67203 11.08988,33.78519 0.4212,0.77425 1.32522,4.23166 2.00892,7.68314 1.01047,5.10098 1.02927,8.52585 0.10046,18.30031 -1.3767,14.48795 -2.59914,22.64811 -4.332,28.91749 -0.71334,2.58081 -1.7373,8.71486 -2.27547,13.63123 -0.53816,4.91636 -2.07442,13.78498 -3.41391,19.70803 -3.47662,15.3731 -3.91367,22.33565 -1.79357,28.57288 1.51092,4.44506 1.56782,5.51535 0.4701,8.84151 -1.19693,3.62673 -1.13633,3.93223 1.45577,7.33908 1.48758,1.95514 4.67436,5.63445 7.08175,8.17625 2.40738,2.54178 5.58131,6.65188 7.05319,9.13355 1.76041,2.96818 3.63951,4.83873 5.49157,5.46659 1.54848,0.52495 5.70531,2.85515 9.23738,5.17822 3.53208,2.32307 6.69944,4.24435 7.03859,4.2695 1.73819,0.12893 15.67665,11.11074 15.9583,12.57321 0.71837,3.73018 -6.06481,4.35027 -15.34168,1.40247 z M 143.81454,614.09297 c 0.39105,-0.24169 0.71101,-1.03713 0.71101,-1.76766 0,-0.73052 1.26694,-1.98339 2.81543,-2.78415 1.54849,-0.80075 2.81544,-1.86209 2.81544,-2.35852 0,-0.49643 -1.62669,-1.92948 -3.61485,-3.18456 -4.29542,-2.71158 -8.99745,-8.45286 -9.87154,-12.05337 -0.7327,-3.01807 -2.39933,-3.22636 -7.31254,-0.91387 -3.81786,1.79694 -10.39508,9.79537 -9.65049,11.73575 0.72974,1.90168 5.2029,4.20873 8.86443,4.57186 3.22797,0.32014 3.28467,0.265 3.28467,-3.19415 0,-5.40678 2.56548,-4.64734 4.47528,1.32477 0.85189,2.6639 1.32988,5.19779 1.06223,5.63087 -0.26766,0.43308 -2.22138,0.78742 -4.34159,0.78742 -4.23011,0 -4.06806,0.80096 0.51377,2.53942 2.66936,1.01283 8.37029,0.82714 10.24875,-0.33381 z m 103.76587,-5.73492 c 0.18477,-1.25122 -0.43592,-2.36391 -1.69435,-3.0374 -2.97345,-1.59134 -3.60604,-0.82067 -2.17214,2.64623 1.39382,3.36997 3.39672,3.5726 3.86649,0.39117 z m -7.49415,-6.51822 c -1.25011,-1.51177 -0.16396,-3.09116 2.1258,-3.09116 2.79032,0 3.05816,-2.12919 0.81033,-6.44175 -2.90702,-5.57723 -6.41629,-5.10004 -7.96827,1.08352 -0.38146,1.51989 -1.78361,3.19214 -3.36012,4.00738 -2.41691,1.24983 -3.54681,3.95058 -2.21145,5.28595 0.27171,0.27171 2.97931,0.44768 6.01689,0.39103 4.19497,-0.0782 5.29781,-0.37515 4.58682,-1.23497 z M 60.062566,437.32014 c 6.142363,-0.99855 10.323254,-2.54026 10.323254,-3.8067 0,-0.37647 -3.484098,-0.62185 -7.742441,-0.54528 -10.767684,0.19362 -17.525274,-1.5421 -23.071343,-5.92602 -2.495174,-1.97233 -5.088609,-4.91852 -5.763188,-6.5471 -0.67458,-1.62857 -2.433969,-3.58545 -3.909753,-4.34861 -1.475784,-0.76316 -2.683245,-1.99586 -2.683245,-2.73933 0,-3.24427 -5.31368,-13.73623 -10.403984,-20.54286 -2.694421,-3.60291 -4.613356,-5.22643 -6.661635,-5.63608 -4.4694477,-0.8939 -5.2015213,-0.71847 -5.7497096,1.3778 -0.3986767,1.52455 0.1437181,2.24202 2.4713575,3.26908 4.5198541,1.99436 6.6625461,3.97725 6.7994891,6.29238 0.173839,2.93888 2.626576,10.54497 5.370509,16.65428 3.144982,7.00225 9.967262,15.16212 15.27959,18.27535 4.9437,2.8972 14.939185,6.01011 17.76404,5.53226 1.032325,-0.17462 4.622002,-0.76375 7.977059,-1.30917 z m -23.87214,-31.05609 c 2.553101,-2.69739 16.734309,-12.52259 19.738247,-13.67531 0.725153,-0.27827 1.31846,-0.0384 1.31846,0.53294 0,2.14951 1.919648,0.92428 3.151021,-2.01117 2.586295,-6.16542 0.144666,-5.95302 -10.78832,0.93848 -4.708464,2.96794 -8.822675,5.42298 -9.14269,5.45565 -0.320016,0.0327 -2.556627,1.05187 -4.970249,2.26488 -4.583712,2.30363 -6.007517,4.76362 -4.445933,7.68146 1.257804,2.35023 1.940797,2.1925 5.139464,-1.18693 z M 159.53335,396.01281 c -2.05202,-1.29733 -3.74607,-1.10507 -3.74607,0.42514 0,1.57779 2.87688,2.44822 4.2153,1.27538 0.59799,-0.52401 0.43028,-1.13183 -0.46923,-1.70052 z m 69.45518,-1.383 c 0,-0.77425 -0.52789,-1.41348 -1.17309,-1.42053 -0.64521,-0.008 -2.01773,-0.22371 -3.05006,-0.48145 -2.30426,-0.57531 -4.69725,0.84485 -3.81876,2.26629 1.02028,1.65083 8.04191,1.33274 8.04191,-0.36431 z m -61.00104,-1.46311 c 0,-1.06279 -0.42232,-1.67133 -0.93848,-1.35233 -0.51616,0.31901 -0.93848,1.18857 -0.93848,1.93235 0,0.74378 0.42232,1.35232 0.93848,1.35232 0.51616,0 0.93848,-0.86955 0.93848,-1.93234 z m 7.03858,0.21181 c 0,-1.69739 -1.83688,-1.38752 -2.2012,0.37133 -0.2027,0.97856 0.14911,1.40759 0.93848,1.14446 0.69449,-0.2315 1.26272,-0.91361 1.26272,-1.51579 z m 66.04166,-2.61179 c 1.08542,-2.38224 1.04115,-2.43589 -1.48645,-1.80151 -5.12977,1.2875 -6.7321,4.25688 -2.29709,4.25688 1.96333,0 2.95929,-0.64634 3.78354,-2.45537 z m -89.24943,-1.12258 c 0.20432,-0.61294 -0.29718,-1.11444 -1.11444,-1.11444 -0.81726,0 -1.48592,0.66867 -1.48592,1.48592 0,1.65729 2.02031,1.36867 2.60036,-0.37148 z m 10.06909,-4.88121 c 0,-0.76716 -0.95021,-1.52981 -2.11158,-1.69475 -2.2892,-0.32511 -2.40825,-0.1575 -1.52425,2.14616 0.714,1.86064 3.63583,1.49788 3.63583,-0.45141 z m 65.22419,0.4039 c 0,-0.81727 -0.50151,-1.31876 -1.11444,-1.11445 -1.74015,0.58005 -2.02877,2.60037 -0.37148,2.60037 0.81725,0 1.48592,-0.66867 1.48592,-1.48592 z m -35.66215,-0.39104 c 1.14445,-0.7396 1.02317,-0.91242 -0.64847,-0.92411 -1.1309,-0.008 -2.31719,-0.43668 -2.6362,-0.95284 -0.85964,-1.39092 -2.3462,-1.1372 -2.3462,0.40043 0,1.1291 0.99411,1.736 3.75391,2.29177 0.25809,0.052 1.10272,-0.31489 1.87696,-0.81525 z m -41.29301,-3.75391 c 0,-1.04275 -0.62566,-1.87695 -1.40772,-1.87695 -0.78206,0 -1.40772,0.8342 -1.40772,1.87695 0,1.04275 0.62566,1.87696 1.40772,1.87696 0.78206,0 1.40772,-0.83421 1.40772,-1.87696 z m 51.09331,-1.27661 c 1.77603,-8.93124 1.34633,-10.01377 -2.11599,-5.33073 -1.95091,2.63874 -2.70574,6.5807 -1.49245,7.79398 1.03952,1.03953 3.20597,-0.43937 3.60844,-2.46325 z m 36.1851,2.21509 c 0,-0.51616 -0.39739,-0.93848 -0.88309,-0.93848 -0.4857,0 -1.1441,0.42232 -1.4631,0.93848 -0.31901,0.51616 0.0784,0.93848 0.88309,0.93848 0.8047,0 1.4631,-0.42232 1.4631,-0.93848 z m 7.00815,-1.85815 c 2.35995,-1.45852 3.33301,-3.02271 4.52459,-7.2732 2.17196,-7.74766 3.01234,-15.22372 3.01304,-26.8043 l 6.2e-4,-10.12751 -3.75391,-3.16501 c -6.07221,-5.11962 -10.79249,-5.10374 -10.79249,0.0363 0,1.76356 -0.42231,3.20647 -0.93848,3.20647 -0.51616,0 -0.93847,-1.06904 -0.93847,-2.37565 0,-3.05147 -2.64961,-4.15816 -4.35887,-1.82061 -0.69959,0.95676 -1.272,2.73956 -1.272,3.96178 0,1.24249 -0.41375,1.96649 -0.93848,1.64219 -0.51616,-0.319 -0.93847,-1.41297 -0.93847,-2.43103 0,-3.04239 -2.86236,-3.36411 -5.08876,-0.57195 -1.39429,1.74861 -2.5513,2.32344 -3.94366,1.95933 -1.20502,-0.31511 -2.16456,-0.009 -2.4701,0.78672 -0.48028,1.25158 0.99629,7.82299 2.54519,11.32729 0.40977,0.92707 0.50506,4.51674 0.21177,7.97706 -0.29329,3.46031 -0.21726,8.1919 0.16895,10.51463 l 0.7022,4.22315 1.12177,-4.9732 c 0.61697,-2.73526 1.12824,-6.74725 1.13614,-8.91554 0.008,-2.16829 0.42375,-4.57581 0.92411,-5.35005 0.62015,-0.95963 0.91431,1.65427 0.92411,8.21167 0.0113,7.61487 0.28829,9.6194 1.32885,9.6194 0.73167,0 1.6679,-1.48168 2.11158,-3.34176 0.7582,-3.17876 2.66843,-4.21712 2.67904,-1.45628 0.003,0.71613 0.95297,1.65273 2.11158,2.08133 1.15861,0.4286 2.10657,1.42635 2.10657,2.21723 0,0.79088 0.63347,1.43796 1.40772,1.43796 1.93215,0 1.76662,0.9047 -0.63283,3.4588 l -2.04055,2.17204 2.97903,0 c 2.02236,0 2.97902,-0.45206 2.97902,-1.40771 0,-0.77425 0.43035,-1.40772 0.95635,-1.40772 0.83919,0 0.64238,2.45314 -0.50083,6.24297 -0.31503,1.04433 0.33328,2.20333 1.23245,2.20333 0.24018,0 1.78962,-0.83617 3.44322,-1.85815 z m -84.27848,-3.24039 c -0.31042,-0.80894 -1.42228,-1.4708 -2.47081,-1.4708 -2.31809,0 -2.39777,0.71697 -0.33317,2.99833 1.76864,1.95433 3.73006,0.8858 2.80398,-1.52753 z m 64.13165,2.35986 c 0,-0.47395 0.25633,-1.52973 0.56964,-2.34619 0.36342,-0.94705 0.06,-1.48447 -0.83807,-1.48447 -1.31444,0 -2.54701,1.85376 -2.54701,3.83066 0,0.47394 0.63347,0.86172 1.40772,0.86172 0.77424,0 1.40772,-0.38778 1.40772,-0.86172 z m -38.00835,-4.76914 c 0,-0.81553 -0.86724,-1.41958 -2.06155,-1.43591 -1.13386,-0.0155 -2.36561,-0.33224 -2.73723,-0.70386 -0.91201,-0.91201 -5.23329,-0.83163 -6.74199,0.1254 -0.99771,0.63289 -0.99771,0.95293 0,1.77266 2.8072,2.30644 11.54077,2.48935 11.54077,0.24171 z m -14.5464,-1.02823 c 0,-1.08168 -0.82344,-3.12311 -1.82986,-4.5365 -1.05707,-1.48451 -1.61705,-3.38359 -1.32596,-4.49673 0.591,-2.25997 -1.23542,-3.75377 -2.74451,-2.24468 -0.76689,0.76689 -0.74516,1.34365 0.0817,2.17058 0.6194,0.6194 1.12617,2.33887 1.12617,3.82108 0,2.25104 -0.34778,2.64932 -2.11157,2.41818 -1.16137,-0.15218 -2.19796,0.13433 -2.30354,0.6367 -0.10559,0.50237 0.67568,0.77413 1.73615,0.6039 1.14806,-0.18428 2.4812,0.48014 3.29522,1.64234 1.7661,2.52145 4.07613,2.51302 4.07613,-0.0148 z m 22.05422,-0.84873 c -0.45405,-0.73467 -0.99391,-0.78919 -1.61956,-0.16354 -0.51617,0.51617 -0.63199,1.43438 -0.25739,2.0405 0.45405,0.73468 0.99391,0.78919 1.61957,0.16354 0.51616,-0.51616 0.63198,-1.43438 0.25738,-2.0405 z m 15.49012,-2.76018 c 0.003,-1.3208 0.39315,-3.87955 0.86727,-5.68611 0.47412,-1.80657 1.12093,-7.80886 1.43737,-13.33842 0.53701,-9.38401 0.44365,-10.18543 -1.40153,-12.03061 -1.61253,-1.61253 -2.95944,-1.93735 -7.3081,-1.76237 -2.93217,0.11799 -6.29298,0.5635 -7.46847,0.99004 -1.36129,0.49397 -3.57603,0.27429 -6.1001,-0.60507 -5.36886,-1.87042 -11.93991,-1.87052 -11.93991,-1.8e-4 0,1.80255 -4.16635,1.8025 -11.71733,-1.5e-4 -5.56878,-1.32944 -7.95332,-0.80938 -6.5678,1.43243 2.29142,3.7076 19.14064,6.97238 23.61777,4.57629 2.0614,-1.10323 2.51204,-1.06241 3.52219,0.31904 0.81524,1.11491 1.45272,1.28975 2.15218,0.5903 1.60889,-1.6089 4.34411,-0.52363 5.04702,2.00255 0.35832,1.28769 0.64458,4.45284 0.63615,7.03365 -0.008,2.58082 -0.22634,3.84776 -0.48425,2.81544 -0.50735,-2.03069 -1.91052,-3.24751 -3.77111,-3.27031 -1.57124,-0.0192 -1.54337,9.0531 0.0375,12.17753 0.65055,1.28583 1.91127,2.47817 2.8016,2.64963 1.32339,0.25486 1.61876,-0.40113 1.61876,-3.59517 0,-2.88557 0.53636,-4.34122 2.05173,-5.56829 1.92244,-1.55671 1.99407,-2.04716 1.13674,-7.78382 -1.09952,-7.35724 -0.88477,-8.2175 2.05136,-8.2175 1.76171,0 2.26799,0.49755 2.26799,2.22889 0,3.602 1.10681,8.09437 1.99427,8.09437 0.45164,0 0.82116,-1.09099 0.82116,-2.4244 0,-1.46345 0.4447,-2.27618 1.12193,-2.05043 1.96037,0.65346 2.71511,5.65362 1.73787,11.51341 -0.92952,5.57356 -1.39545,11.82509 -1.08417,14.5464 0.26853,2.34753 2.91593,-1.85384 2.922,-4.63714 z m -59.59856,3.69866 c 0.319,-0.51616 -0.0784,-0.93848 -0.88309,-0.93848 -0.80471,0 -1.46311,0.42232 -1.46311,0.93848 0,0.51616 0.39739,0.93848 0.88309,0.93848 0.4857,0 1.1441,-0.42232 1.46311,-0.93848 z m 8.91553,-4.58464 c 0,-1.9133 -2.6062,-6.8364 -3.15176,-5.95365 -0.96847,1.56701 0.46297,6.78438 1.86136,6.78438 0.70972,0 1.2904,-0.37383 1.2904,-0.83073 z m 2.7869,-6.44247 c -0.0245,-2.21383 -0.16515,-2.34622 -0.98927,-0.93104 -0.5284,0.90737 -0.70179,2.06874 -0.38532,2.58081 0.97034,1.57003 1.40443,1.04905 1.37459,-1.64977 z m 22.552,0.64037 c 0,-1.79334 -0.36479,-1.97513 -2.93274,-1.46154 -1.61301,0.3226 -3.93574,0.58655 -5.16163,0.58655 -1.22589,0 -2.22888,0.53033 -2.22888,1.17852 0,0.76855 1.79557,1.27697 5.16162,1.46154 4.7662,0.26135 5.16163,0.12612 5.16163,-1.76507 z m -27.98185,-8.47338 c -0.36208,-7.33261 -0.9337,-9.51383 -2.36369,-9.01963 -1.17121,0.40476 -1.18594,1.8288 -0.10667,10.31659 0.95934,7.5447 2.85776,6.54802 2.47036,-1.29696 z m -34.22613,-2.42133 c 0.62658,-0.8295 1.31046,-1.97619 1.51971,-2.54819 0.27041,-0.73918 0.95519,-0.70068 2.36731,0.13308 2.61566,1.54438 4.76615,1.4871 5.39192,-0.14363 0.62886,-1.6388 -2.56891,-8.03505 -5.71337,-11.42797 -1.29724,-1.39976 -2.35863,-3.0919 -2.35863,-3.76031 0,-3.93631 -6.21408,-1.30569 -13.37331,5.66137 -2.96794,2.88826 -5.39625,5.7131 -5.39625,6.2774 0,0.56431 0.94916,2.7148 2.10923,4.77888 l 2.10924,3.75287 6.10244,-0.60767 c 3.93898,-0.39222 6.50634,-1.14235 7.24171,-2.11583 z m 32.94582,-11.79988 c -0.36014,-2.53578 -3.68565,-3.31288 -5.38981,-1.2595 -1.64274,1.97939 -0.46023,3.37107 2.86439,3.37107 2.39317,0 2.77944,-0.32297 2.52542,-2.11157 z m -47.28855,-7.60445 c 4.60984,-2.70101 8.52825,-5.35112 8.70758,-5.88912 0.52995,-1.58983 -4.4921,-5.97984 -6.84077,-5.97984 -1.19083,0 -4.8285,2.04063 -8.0837,4.53473 -4.874956,3.73516 -5.972177,5.08298 -6.22277,7.64403 -0.289961,2.96331 0.905237,4.74217 3.119669,4.64312 0.516162,-0.0231 4.710161,-2.2519 9.319991,-4.95292 z m 100.24727,-1.59505 c 3.50506,-0.97341 4.96911,-3.70457 1.98584,-3.70457 -2.91962,0 -8.69382,2.15012 -9.18055,3.41853 -0.59729,1.55652 2.21704,1.6684 7.19471,0.28604 z m -74.95495,-2.10018 c 1.44669,-1.44669 2.3384,-3.74422 2.72715,-7.0267 0.34354,-2.90059 2.34143,-8.5521 4.92975,-13.94495 l 4.3521,-9.06778 -3.83724,-7.6384 c -2.11049,-4.20112 -3.83725,-8.08014 -3.83725,-8.62006 0,-0.53991 -1.52646,-4.11324 -3.39214,-7.94074 -1.86568,-3.8275 -3.77244,-7.95348 -4.23726,-9.16886 -1.41912,-3.71066 -3.68854,-2.77421 -19.56991,8.07526 -4.72221,3.22602 -8.90085,5.86549 -9.28586,5.86549 -0.38501,0 -1.624276,0.86108 -2.753931,1.91352 -2.576637,2.4005 -2.66095,6.63099 -0.176959,8.87897 1.116253,1.01019 1.876955,2.89048 1.876955,4.63941 0,5.48674 4.359075,11.96736 16.868605,25.0785 3.85804,4.04357 7.7496,7.35195 8.64791,7.35195 0.89831,0 2.08533,0.84463 2.63781,1.87696 1.29913,2.42743 2.41024,2.36747 5.05027,-0.27257 z m 94.32758,-2.89068 c 0.81907,-0.98692 0.64904,-1.8031 -0.73055,-3.50683 -1.65664,-2.04586 -2.0506,-2.12924 -5.00779,-1.0599 -1.76532,0.63834 -3.97046,1.16063 -4.90029,1.16063 -1.34084,0 -1.46554,0.27121 -0.60273,1.31084 0.59834,0.72096 1.85876,1.10924 2.80092,0.86287 1.01233,-0.26474 1.94586,0.15877 2.28224,1.03535 0.6995,1.82288 4.70258,1.95097 6.1582,0.19704 z m -11.57833,-6.69279 c 8.39196,-2.4381 9.80215,-3.11 9.80215,-4.67024 0,-1.88086 -1.69612,-1.80121 -8.20794,0.3855 -2.96999,0.99734 -7.93387,2.28923 -11.03085,2.87086 -7.49941,1.40842 -8.2093,1.6886 -7.43857,2.93566 0.86125,1.39353 9.53212,0.61161 16.87521,-1.52178 z m -2.67614,-5.53082 c 1.95952,-0.73172 6.68423,-2.53121 10.49935,-3.99888 l 6.93661,-2.66849 3.12771,-10.79249 c 5.19622,-17.93006 6.24962,-24.00097 5.69946,-32.84671 -0.68539,-11.01999 -3.56386,-20.87301 -9.1019,-31.15587 -4.0729,-7.56242 -10.10314,-14.76823 -12.39855,-14.81557 -0.37236,-0.007 -1.03233,1.35725 -1.46661,3.03316 -0.46379,1.78982 -1.81535,3.62287 -3.27556,4.44247 -2.15185,1.2078 -2.90075,1.21911 -5.57197,0.0842 -1.6973,-0.72118 -4.35294,-1.28289 -5.90143,-1.24827 -10.397,0.23246 -19.14078,1.06387 -20.85896,1.98342 -3.23659,1.73217 -7.56032,1.3342 -8.70308,-0.80105 -1.43841,-2.68771 -2.28931,-2.37158 -5.54968,2.06183 -2.81225,3.82403 -2.89662,4.23236 -2.89662,14.01889 0,13.43394 3.44156,27.57722 9.72918,39.98259 1.37051,2.70398 3.01505,7.55609 3.65453,10.78246 1.61607,8.15354 1.99033,8.13583 14.16923,-0.67043 4.8135,-3.48052 8.74296,-4.24501 9.65137,-1.87773 0.78721,2.05143 -0.96511,3.76634 -9.78061,9.5718 -8.49737,5.59596 -10.4547,8.2345 -9.05663,12.20864 0.82329,2.3403 1.25562,2.49179 7.78096,2.72649 3.8001,0.13668 7.08933,0.42859 7.30943,0.6487 1.01395,1.01395 12.81826,0.52039 16.00377,-0.66914 z m -45.70732,-33.94491 c 0,-2.31678 -1.81054,-5.09993 -3.31769,-5.09993 -1.67159,0 -1.84713,3.84457 -0.24852,5.44317 1.58898,1.58898 3.56621,1.39868 3.56621,-0.34324 z m 119.62206,-4.84854 c 2.63194,-3.87325 3.02338,-5.88226 1.14613,-5.88226 -1.29557,0 -4.39697,5.64908 -4.39697,8.00891 0,2.11451 0.66411,1.68007 3.25084,-2.12665 z m 60.68799,1.86018 c 0.0673,-0.38712 0.24749,-2.60427 0.40045,-4.927 0.15295,-2.32274 0.64125,-7.70725 1.08509,-11.96559 0.78469,-7.52852 0.75172,-7.74244 -1.19348,-7.74244 -3.94409,0 -5.49213,3.22677 -6.20139,12.9263 -0.39368,5.3839 -0.29271,9.697 0.25081,10.71257 0.8768,1.63831 5.40823,2.43606 5.65852,0.99616 z m -185.05715,-5.33031 c 2.3594,-2.84291 -3.68679,-23.05863 -6.89645,-23.05863 -0.69592,0 -1.78524,0.62647 -2.42071,1.39216 -0.95425,1.14982 -0.76333,1.54122 1.09676,2.24843 1.23868,0.47094 2.77456,1.48573 3.41306,2.25507 1.01298,1.22058 0.23374,1.38251 -6.11551,1.27087 -6.05244,-0.10643 -7.3279,0.13041 -7.58252,1.40798 -0.37343,1.8737 5.15136,5.50265 8.37734,5.50265 1.89705,0 2.47309,0.72442 3.54472,4.45777 0.70377,2.45177 1.45436,4.7745 1.66799,5.16163 0.65312,1.18354 3.73565,0.78347 4.91532,-0.63793 z m 92.02552,-6.31149 c 0,-1.7214 0.84813,-2.10002 3.98853,-1.78058 3.10435,0.31578 1.63657,-1.79918 -2.81543,-4.05683 -6.30046,-3.195 -8.07219,-5.39504 -7.27343,-9.03174 0.63694,-2.89998 -0.90749,-8.44733 -2.35183,-8.44733 -0.39414,0 -2.43928,-1.77484 -4.54476,-3.9441 -2.10548,-2.16924 -4.09929,-3.67294 -4.43069,-3.34154 -0.33139,0.33139 0.51964,1.72471 1.89119,3.09625 1.37153,1.37155 2.31607,2.98083 2.09894,3.57617 -0.21712,0.59536 0.27238,1.84729 1.08779,2.78208 1.2324,1.41283 1.26615,1.83339 0.20003,2.49228 -1.07089,0.66184 -1.08255,1.5429 -0.0707,5.33895 0.66653,2.50047 1.81661,5.52478 2.55574,6.72068 1.04153,1.68523 1.09497,2.47425 0.23759,3.50735 -1.49788,1.80482 -0.44434,4.17229 1.85668,4.17229 1.03037,0 2.34418,0.87966 2.91958,1.95481 0.99786,1.86452 1.12944,1.87948 2.84845,0.3238 0.99127,-0.89708 1.80229,-2.41021 1.80229,-3.36254 z m 144.41117,-4.45638 c 2.03712,-1.29029 0.30758,-2.90599 -3.11077,-2.90599 -4.17805,0 -5.55003,-1.73963 -3.43245,-4.35225 1.25365,-1.54673 2.9775,-2.10909 7.52856,-2.45603 3.24643,-0.24748 6.17339,-0.86522 6.50436,-1.37273 0.33095,-0.50753 1.55195,-1.42317 2.71331,-2.03476 4.0398,-2.12743 2.08236,-2.80422 -2.34619,-0.81121 -5.57377,2.5084 -14.31179,3.6954 -14.31179,1.94416 0,-0.66257 1.16137,-1.46413 2.58082,-1.78126 7.10431,-1.58722 13.93755,-3.5773 14.7341,-4.2911 1.31357,-1.17711 -11.4271,-0.97615 -17.67605,0.27882 -6.69319,1.34419 -8.57139,0.18195 -5.03683,-3.11681 4.97905,-4.64688 7.91411,-6.86191 12.43655,-9.38559 3.04894,-1.70142 4.03501,-2.62396 2.81543,-2.63406 -1.03233,-0.008 -3.35506,0.78936 -5.16163,1.77314 -1.80657,0.98378 -7.13862,3.72727 -11.84902,6.09664 -9.36305,4.70973 -10.33723,5.52049 -10.81913,9.00436 -0.18199,1.31561 -0.94289,2.34619 -1.73226,2.34619 -1.37555,0 -1.79292,-1.52296 -3.40776,-12.43483 -0.32464,-2.19369 -0.90486,-3.98853 -1.28937,-3.98853 -0.87158,0 -1.87222,4.82828 -1.87222,9.03389 0,2.48138 -0.84226,3.9858 -3.88426,6.93796 -3.64727,3.53955 -3.79042,3.87325 -2.3462,5.4691 0.84595,0.93475 1.53807,2.80274 1.53807,4.15107 0,3.3929 1.0241,3.74563 7.25065,2.49734 4.81099,-0.96449 5.94514,-0.87464 10.11119,0.80103 4.97091,1.9994 17.62425,2.77605 20.06289,1.23145 z M 155.84487,213.4742 c -1.42481,-4.54828 -3.64091,-16.25533 -4.84153,-25.57638 -0.70815,-5.49788 -1.50439,-8.59186 -2.15772,-8.38433 -1.58051,0.50202 -4.23282,9.06573 -4.27899,13.81587 -0.0526,5.40504 3.13333,16.60182 5.44887,19.15016 0.98082,1.07942 2.29964,2.96208 2.93069,4.18366 0.98269,1.90228 1.33568,2.03276 2.45939,0.90903 0.97349,-0.97348 1.08684,-2.0309 0.43929,-4.09801 z m 45.78797,-1.7299 c 2.02693,-1.12408 7.55791,-11.59574 7.62139,-14.4294 0.0176,-0.78632 -1.52848,-1.17309 -4.68934,-1.17309 -5.42464,0 -5.84811,0.58469 -6.95516,9.60304 -0.8945,7.28691 -0.19077,8.33637 4.02311,5.99945 z m -33.12086,-1.02625 c 1.00193,-0.75782 2.74699,-1.39129 3.87789,-1.40771 1.1309,-0.0164 2.31098,-0.4421 2.62239,-0.94597 1.25082,-2.02388 1.55936,-10.11567 0.53108,-13.928 -1.01798,-3.77411 -1.51304,-4.24017 -7.22726,-6.80397 -3.37393,-1.51378 -6.95013,-2.75232 -7.94712,-2.75232 -5.04664,0 -5.4651,19.61564 -0.55557,26.04275 1.22437,1.60284 6.47203,1.4793 8.69859,-0.20478 z m 25.87098,-4.72223 c 2.52616,-8.02549 2.11271,-10.11991 -2.20842,-11.18743 -5.35398,-1.32269 -7.61388,0.18218 -9.55865,6.36508 -1.8929,6.01805 -1.35153,9.039 1.62358,9.05987 1.12658,0.007 2.68181,0.43264 3.45605,0.94385 3.05194,2.01513 4.86419,0.61101 6.68744,-5.18137 z m 16.10619,-15.84724 c 2.37731,-0.71547 9.64188,-4.62022 16.14349,-8.67723 10.46958,-6.53302 12.2457,-8.02807 15.5348,-13.07636 5.46624,-8.38991 5.24826,-12.13507 -1.52289,-26.16503 l -5.23659,-10.85029 0.66509,-9.38118 0.66509,-9.38119 -3.35234,0 c -2.41259,0 -3.76695,-0.5919 -4.83128,-2.11146 l -1.47892,-2.11145 -5.20876,2.81531 c -2.86482,1.54843 -5.87837,3.55437 -6.6968,4.45766 -1.98016,2.18547 -3.49908,2.07091 -5.13107,-0.387 -1.31828,-1.98543 -1.55497,-2.00573 -10.9406,-0.93848 -17.4085,1.97955 -28.13951,1.25788 -37.91484,-2.5498 -3.05245,-1.18898 -7.2732,0.0625 -7.2732,2.1565 0,0.75775 -0.81279,1.94702 -1.80621,2.64284 -0.99341,0.69581 -2.54997,3.14808 -3.45903,5.44947 -2.18264,5.52562 -4.46758,9.6184 -5.57613,9.98791 -0.49307,0.16436 -2.37304,-1.65465 -4.17772,-4.04224 -8.62397,-11.40948 -11.26183,-12.18381 -11.25305,-3.30326 0.007,7.01993 1.38495,11.68871 5.3558,18.14575 2.74888,4.46999 3.98559,5.58074 7.57556,6.80396 6.25646,2.1318 6.74602,1.97977 6.50875,-2.02122 -0.1487,-2.50749 0.20157,-3.56823 1.25052,-3.78705 1.04517,-0.21802 2.07148,1.43637 3.63035,5.85205 1.71777,4.86581 2.43236,5.94095 3.40959,5.12991 2.11205,-1.75285 2.61649,-6.36677 0.9707,-8.87857 -1.96475,-2.99858 -1.88028,-4.51299 0.36507,-6.545 1.31911,-1.19379 2.75808,-1.53297 4.97633,-1.173 3.06841,0.49793 3.15119,0.41842 4.94824,-4.75347 2.40733,-6.92824 8.46219,-11.58024 15.87218,-12.19474 6.30115,-0.52253 8.77881,0.80269 13.66827,7.31076 3.77775,5.02834 3.86829,5.32127 3.53885,11.44939 -0.40094,7.45795 -2.11866,9.81508 -9.4513,12.9695 -4.69315,2.01893 -4.84851,2.02483 -10.81299,0.41032 -4.14431,-1.12181 -6.80415,-2.48286 -8.4399,-4.31872 -2.57676,-2.89196 -7.60996,-3.70405 -9.34375,-1.50758 -0.92727,1.17473 -2.39098,12.8626 -2.24947,17.96237 0.11252,4.05556 2.95588,10.77259 4.80908,11.36077 0.89554,0.28423 3.01265,2.03815 4.70471,3.89759 2.95824,3.25088 12.42997,8.30285 18.3015,9.76153 4.82922,1.19973 18.72911,0.95518 23.26287,-0.40927 z m -7.24262,-8.81404 c -0.58564,-1.84522 1.06037,-6.77772 2.26178,-6.77772 0.3404,0 2.38234,-1.50943 4.53763,-3.35428 2.15529,-1.84485 4.64902,-3.21363 5.5416,-3.04173 3.50896,0.67576 5.30494,8.96722 2.71081,12.5149 -1.01211,1.38415 -2.78301,1.86875 -7.88191,2.15686 -5.91916,0.33446 -6.63582,0.18473 -7.16991,-1.49803 z m 12.15948,-4.00339 c 0.33298,-0.53878 0.10241,-1.58569 -0.5124,-2.32648 -1.34508,-1.62073 -4.67463,-0.2451 -4.67463,1.93136 0,1.58902 4.24912,1.91269 5.18703,0.39512 z m -15.51028,-20.86011 c 0,-1.73525 6.09346,-7.25311 8.00972,-7.25311 1.95778,0 1.73213,4.07834 -0.32886,5.94351 -2.49655,2.25934 -7.68086,3.14328 -7.68086,1.3096 z m 18.76955,-0.60701 c 0,-0.47395 -0.20672,-1.42416 -0.45939,-2.11157 -0.25265,-0.68743 -0.0952,-1.82135 0.3499,-2.51985 1.27402,-1.99933 4.80188,0.33694 4.80188,3.17996 0,1.84174 -0.47818,2.31318 -2.3462,2.31318 -1.2904,0 -2.34619,-0.38778 -2.34619,-0.86172 z m -82.11679,-16.17609 c -4.7867,-2.61811 -5.05972,-7.36261 -0.42368,-7.36261 2.77823,0 6.52378,3.98959 6.52378,6.94884 0,1.74559 -3.26076,1.96677 -6.1001,0.41377 z m 82.11679,-2.11662 c -3.05355,-1.0975 -3.30498,-1.4932 -3.57334,-5.62382 -0.36279,-5.58431 2.15171,-13.33949 4.91144,-15.14773 4.64343,-3.04249 13.68594,3.43823 13.6723,9.79886 -0.007,3.63752 -1.74743,9.22226 -3.38184,10.85667 -1.7135,1.7135 -7.03614,1.7666 -11.62856,0.11602 z m 5.63087,-5.71523 c 0.64256,-0.77424 1.96122,-1.40771 2.93034,-1.40771 1.23898,0 1.76204,-0.67509 1.76204,-2.27419 0,-2.69715 -4.28949,-8.14476 -5.92044,-7.51891 -1.32905,0.51001 -3.46433,6.8262 -3.46433,10.24756 0,2.71934 2.76114,3.28027 4.69239,0.95325 z m -33.75836,15.60497 c 2.02928,-1.6727 3.91516,-4.48968 4.97054,-7.42459 l 1.7006,-4.72923 -2.34848,-3.72024 c -4.79693,-7.59882 -9.68844,-9.31159 -17.57782,-6.15489 -4.46478,1.78646 -6.13403,4.81648 -6.99065,12.68947 -0.46931,4.31316 -0.24458,5.35923 1.64371,7.65123 2.23845,2.71701 6.16606,4.11721 12.02672,4.28753 2.35016,0.0683 4.25048,-0.68291 6.57538,-2.59928 z m 58.7275,-14.19725 c 1.55098,-6.74033 1.61366,-13.60121 0.13513,-14.79265 -2.60084,-2.09582 -8.15636,2.69123 -6.90568,5.95045 0.28162,0.7339 1.32475,1.33438 2.31806,1.33438 3.35399,0 4.01685,5.49778 1.02371,8.49091 -1.7295,1.7295 -1.8032,2.24889 -0.73739,5.19632 1.14488,3.16614 1.21391,3.20356 2.0813,1.12848 0.49344,-1.18045 1.43162,-4.46899 2.08487,-7.30789 z m -62.14318,-23.20135 c 0.37284,-0.37285 -3.25203,-2.02153 -8.05526,-3.66375 -4.80324,-1.64222 -11.68937,-4.0733 -15.30251,-5.40241 -3.61314,-1.329112 -7.06796,-2.425479 -7.67737,-2.436366 -1.46295,-0.02618 -10.10533,-5.401438 -23.11709,-14.378145 -6.83331,-4.714243 -7.75951,-5.070582 -8.41658,-3.238101 -0.84129,2.346283 1.36708,4.451004 8.02025,7.643792 3.73471,1.792249 9.1131,4.72674 11.952,6.52109 2.83889,1.794351 6.58252,4.157813 8.31917,5.25214 3.50251,2.20705 20.51037,7.854 27.81222,9.23422 2.58081,0.48783 4.93874,0.94512 5.23983,1.01619 0.3011,0.071 0.8525,-0.17582 1.22534,-0.54866 z m 28.72774,-2.01523 2.34619,-1.53003 -2.81543,-0.32541 c -2.72171,-0.31457 -12.17259,1.36743 -14.06771,2.50368 -1.59884,0.95862 3.5482,1.82644 7.9676,1.34339 2.32274,-0.25388 5.27894,-1.15012 6.56935,-1.99163 z m 15.35353,-4.40604 c 5.89659,-2.69955 7.40606,-4.18668 4.17527,-4.11347 -2.96029,0.0671 -15.05711,5.04824 -14.2412,5.86415 1.26129,1.2613 4.85038,0.63708 10.06593,-1.75068 z m -36.02065,-5.545455 c 0.63123,-0.76058 2.58336,-1.652208 4.33806,-1.981398 3.55632,-0.667173 3.91499,-1.89702 1.76546,-6.053735 -1.20115,-2.322775 -1.41379,-8.075393 -1.3541,-36.633937 0.0429,-20.530411 0.44706,-34.863821 1.02577,-36.379368 0.89688,-2.348751 1.03126,-2.397042 2.20879,-0.79379 1.19821,1.631404 1.28114,1.621 1.87009,-0.23462 0.70327,-2.215801 1.50702,-2.426064 3.11753,-0.815551 0.87591,0.875912 1.12617,0.667362 1.12617,-0.938477 0,-1.135558 -0.49464,-2.064651 -1.0992,-2.064651 -0.60456,0 -1.77112,-0.608085 -2.59236,-1.351299 -1.77584,-1.6071021 -13.28109,-3.6364302 -14.38096,-2.5365531 -0.42173,0.4217275 -0.25743,1.9969131 0.3651,3.5004121 1.38948,3.35574 1.8158,27.315173 0.64981,36.518825 -1.2167,9.603935 -2.4418,44.80934 -1.61655,46.454639 0.38834,0.774244 0.93481,2.146767 1.21437,3.050052 0.62077,2.005789 1.83492,2.099496 3.36202,0.259451 z m 45.02983,-2.826957 c 2.1737,-0.766933 5.13124,-2.56177 6.57231,-3.988533 1.44107,-1.426765 4.39072,-4.283377 6.55477,-6.348028 4.57002,-4.360093 6.07055,-6.686546 4.81372,-7.463311 -0.47935,-0.296251 -3.33112,2.212512 -6.33727,5.575029 -4.06639,4.548455 -6.55774,6.476735 -9.73114,7.531799 -5.13521,1.707314 -8.63402,4.017603 -7.8951,5.213186 0.72351,1.170666 1.39474,1.112696 6.02271,-0.520142 z m -56.79503,-3.024244 c 0.80085,-2.08699 0.76005,-58.046299 -0.0469,-64.387462 -0.34051,-2.675405 -1.17904,-5.920159 -1.86342,-7.210566 -1.07761,-2.031818 -1.24856,-0.208439 -1.27581,13.607924 -0.0173,8.774765 -0.25004,25.003218 -0.51722,36.06323 -0.26716,11.060011 -0.24146,20.878832 0.0572,21.819602 0.68468,2.157217 2.83532,2.220489 3.64624,0.107272 z m -6.66486,-16.931711 c 0.29452,-8.645725 0.65999,-16.732544 0.81215,-17.970711 0.15218,-1.238166 -0.25121,-2.434725 -0.89641,-2.659019 -0.87506,-0.304198 -1.1731,1.51019 -1.1731,7.141412 0,4.152072 -0.46261,11.801657 -1.02804,16.999078 -0.56541,5.197421 -0.78983,10.070604 -0.49868,10.829297 1.51007,3.935196 2.30018,-0.134435 2.78408,-14.340057 z m -8.6144,-19.473409 -0.55483,-9.384776 -0.93008,6.569343 c -1.09169,7.710806 -1.06634,31.326027 0.0375,34.99755 1.08163,3.597419 2.15355,-20.237033 1.44735,-32.182117 z m 35.98061,25.338893 c 0,-7.694169 -1.85192,-7.615884 -2.19811,0.09292 -0.21612,4.81225 -4.6e-4,6.114387 0.95967,5.794344 0.83688,-0.278959 1.23844,-2.187866 1.23844,-5.887263 z m -47.39312,1.35233 c 0,-1.674901 -0.39095,-2.629199 -0.93848,-2.290807 -0.51616,0.319006 -0.93848,1.610874 -0.93848,2.870818 0,1.259945 0.42232,2.290808 0.93848,2.290808 0.51616,0 0.93848,-1.291869 0.93848,-2.870819 z m 76.71553,-8.008249 c -0.74567,-9.28941 -2.5758,-10.028055 -2.5758,-1.039597 0,6.06633 0.24658,7.226277 1.5362,7.226277 1.31749,0 1.4655,-0.880828 1.0396,-6.18668 z M 187.43047,26.524895 c -0.2157,-1.426545 -0.39797,-0.482143 -0.40501,2.09867 -0.007,2.580813 0.16945,3.747986 0.3922,2.593717 0.22276,-1.154269 0.22853,-3.265843 0.0128,-4.692387 z m -0.43421,-10.881878 c -0.54332,-6.1394097 -1.7026,-7.1874097 -5.32503,-4.813904 -2.83209,1.855656 -3.16061,4.169099 -0.68401,4.816746 0.95591,0.249974 2.45666,1.961514 3.33501,3.803422 2.1443,4.496653 3.26734,2.89809 2.67403,-3.806264 z"
     id="path4242"
     inkscape:connector-curvature="0" />
</svg>
