<?xml version="1.0" encoding="UTF-8" standalone="no"?>
<!-- Created with Inkscape (http://www.inkscape.org/) -->

<svg
   xmlns:dc="http://purl.org/dc/elements/1.1/"
   xmlns:cc="http://creativecommons.org/ns#"
   xmlns:rdf="http://www.w3.org/1999/02/22-rdf-syntax-ns#"
   xmlns:svg="http://www.w3.org/2000/svg"
   xmlns="http://www.w3.org/2000/svg"
   xmlns:sodipodi="http://sodipodi.sourceforge.net/DTD/sodipodi-0.dtd"
   xmlns:inkscape="http://www.inkscape.org/namespaces/inkscape"
   id="svg97261"
   version="1.1"
   inkscape:version="0.91 r13725"
   width="194.0625"
   height="551.25"
   viewBox="0 0 194.0625 551.25"
   sodipodi:docname="ComicCharacter141.svg">
  <metadata
     id="metadata97267">
    <rdf:RDF>
      <cc:Work
         rdf:about="">
        <dc:format>image/svg+xml</dc:format>
        <dc:type
           rdf:resource="http://purl.org/dc/dcmitype/StillImage" />
        <dc:title></dc:title>
      </cc:Work>
    </rdf:RDF>
  </metadata>
  <defs
     id="defs97265" />
  <sodipodi:namedview
     pagecolor="#ffffff"
     bordercolor="#666666"
     borderopacity="1"
     objecttolerance="10"
     gridtolerance="10"
     guidetolerance="10"
     inkscape:pageopacity="0"
     inkscape:pageshadow="2"
     inkscape:window-width="1600"
     inkscape:window-height="837"
     id="namedview97263"
     showgrid="false"
     inkscape:zoom="1.2154195"
     inkscape:cx="97.03125"
     inkscape:cy="275.625"
     inkscape:window-x="-8"
     inkscape:window-y="-8"
     inkscape:window-maximized="1"
     inkscape:current-layer="svg97261" />
  <path
     style="fill:#000000"
     d="m 48.951845,547.9636 c -3.756173,-1.75711 -8.040048,-4.0568 -9.519722,-5.11042 -1.479675,-1.05363 -3.890817,-1.91634 -5.358095,-1.91713 -6.340766,-0.004 -11.435893,-4.93726 -13.354939,-12.93207 -0.458472,-1.91 -1.928321,-7.47196 -3.266332,-12.3599 -1.338012,-4.88795 -2.836637,-13.11451 -3.330279,-18.28125 -1.303971,-13.64815 -1.460332,-41.73744 -0.28974,-52.05033 0.556008,-4.89844 1.491912,-13.96875 2.079784,-20.15625 0.587873,-6.1875 1.662625,-15.7227 2.38834,-21.18933 1.168179,-8.79962 1.139641,-12.02463 -0.248878,-28.125 -1.087386,-12.60864 -1.47189,-25.05865 -1.253795,-40.59722 0.286192,-20.39037 0.177018,-22.35875 -1.210564,-21.82629 -1.07893,0.41402 -1.525125,0.0638 -1.525125,-1.19716 0,-2.13875 -2.818386,-3.19985 -6.4061241,-2.41185 -4.7580156,1.04504 -5.8888942,-1.51487 -6.9064759,-15.63381 -0.90276291,-12.52582 -0.76569755,-16.61586 1.0772205,-32.14434 1.1916654,-10.041 2.8080051,-17.53174 7.1804722,-33.27704 4.8070483,-17.31023 6.4979143,-21.04822 11.3540293,-25.10024 10.011361,-8.35364 19.781098,-18.29581 21.180163,-21.55398 0.828072,-1.92843 2.832246,-7.09218 4.45372,-11.47499 1.621475,-4.38281 3.529562,-9.44531 4.240195,-11.25 0.950765,-2.41451 1.239364,-7.49111 1.092567,-19.21875 -0.221324,-17.68141 0.02298,-18.75557 6.230997,-27.39667 2.268858,-3.15809 5.537323,-6.02987 9.725872,-8.5455 5.710427,-3.42965 22.001247,-18.316006 27.097048,-24.760955 1.63125,-2.063128 2.807569,-2.578125 5.888806,-2.578125 4.10964,0 5.81163,-1.824124 4.15395,-4.452076 -0.88309,-1.399995 -6.530121,-5.053196 -10.479865,-6.779685 -1.181774,-0.516569 -3.086578,-2.963574 -4.232899,-5.437791 -1.14632,-2.474215 -3.043398,-5.528131 -4.215728,-6.786481 -1.172331,-1.258348 -2.33594,-3.350988 -2.585801,-4.650312 C 82.660788,47.469333 82.033059,44.507812 81.515695,42.1875 80.563074,37.915117 81.169006,31.875 82.550223,31.875 c 0.414342,0 1.386161,0.632812 2.159599,1.40625 0.773437,0.773437 1.858259,1.40625 2.410713,1.40625 0.552456,0 1.004465,0.632812 1.004465,1.40625 0,0.773437 0.421875,1.40625 0.9375,1.40625 0.515625,0 0.9375,1.303127 0.9375,2.895838 l 0,2.895837 2.704535,-2.275715 c 1.487496,-1.251643 5.531693,-3.477276 8.987115,-4.945849 5.16034,-2.193175 6.60079,-2.471409 8.064,-1.557622 2.09855,1.310571 5.23182,1.459379 5.95886,0.283004 0.28196,-0.456228 -2.32986,-1.132474 -5.80405,-1.502768 -3.47419,-0.370295 -7.05499,-1.066547 -7.95733,-1.547228 -1.966608,-1.047615 -2.199521,-4.557997 -0.30242,-4.557997 0.73601,0 2.16782,-1.054688 3.1818,-2.34375 2.32579,-2.956776 2.97999,-2.952364 2.97999,0.0201 0,1.603663 -0.74427,2.702961 -2.31435,3.418339 -1.2729,0.579969 -2.09271,1.413127 -1.8218,1.851463 0.84837,1.372697 6.01115,-1.936 6.01115,-3.852398 0,-0.987578 0.44994,-2.073677 0.99987,-2.413552 1.83074,-1.13146 2.08973,0.418721 0.58798,3.519478 -1.7135,3.537997 -0.79977,4.615523 3.25608,3.839752 1.62713,-0.311222 2.69379,-1.249611 3.05462,-2.687263 0.70057,-2.791285 6.68287,-5.895754 8.28116,-4.297453 0.58866,0.588657 2.31692,1.070285 3.84059,1.070285 2.62577,0 2.68925,-0.08956 1.21671,-1.716705 -0.85449,-0.944187 -1.26703,-2.003269 -0.91679,-2.353515 0.79946,-0.799464 -5.26695,0.318823 -7.27803,1.341636 -0.81898,0.416526 -2.38188,0.523841 -3.47311,0.238477 -1.55416,-0.406421 -2.11476,0.002 -2.58729,1.884678 -0.33179,1.321936 -1.26582,2.948168 -2.07564,3.61385 -1.30482,1.072592 -1.39845,0.83729 -0.82273,-2.067666 0.35731,-1.802897 1.43175,-4.060091 2.38765,-5.015988 1.44429,-1.44429 2.08771,-1.550826 3.8075,-0.630424 1.13824,0.609163 2.34912,0.827959 2.69087,0.486212 1.02193,-1.021924 -2.8222,-3.280556 -5.58342,-3.280556 -1.94857,0 -2.64112,-0.508879 -2.87072,-2.109375 -0.23357,-1.628078 -0.83263,-2.049666 -2.6255,-1.847686 -2.25595,0.25415 -2.26937,0.221244 -0.46571,-1.142059 1.02984,-0.77841 1.33511,-1.417031 0.68529,-1.433565 -1.58497,-0.04032 -1.47682,-1.465945 0.24156,-3.1843277 0.87626,-0.8762578 1.05441,-1.6353363 0.46875,-1.9972928 -0.51958,-0.3211182 -0.94469,-1.3906414 -0.94469,-2.376718 0,-1.959281 5.33775,-4.02611574 7.03384,-2.72357956 1.15,0.88316206 12.6711,1.14189076 17.80991,0.39995626 4.49001,-0.64826121 9.72302,1.6757885 11.38655,5.0569188 0.60507,1.2298121 1.50129,2.4954371 1.9916,2.8125 0.49032,0.3170633 1.63404,2.053041 2.54161,3.857728 0.90758,1.804688 3.28676,4.830294 5.28706,6.72357 2.32213,2.197877 3.63693,4.283244 3.63693,5.768443 0,1.551583 1.14301,3.243074 3.43272,5.079946 2.73618,2.19504 3.54466,3.592659 3.98438,6.887808 0.39492,2.9595 1.10514,4.377187 2.49986,4.990021 3.35957,1.476188 4.26232,5.19569 3.81041,15.699632 -0.22939,5.331882 -0.14068,11.592767 0.19714,13.91308 0.64689,4.443246 -0.66109,15 -1.85851,15 -0.38612,0 -0.73537,-8.719949 -0.77611,-19.377666 -0.0717,-18.771721 -0.64269,-22.769251 -3.04028,-21.287457 -0.50213,0.310329 -0.70113,1.374257 -0.44223,2.364286 0.32139,1.228996 -0.37841,2.427843 -2.20586,3.778939 -2.32469,1.718713 -2.66327,2.563567 -2.5753,6.425968 0.12098,5.310868 -1.72519,10.268902 -3.84308,10.320966 -1.00621,0.02473 -0.69108,0.491772 0.92413,1.369591 4.44874,2.417761 8.22755,12.779241 5.9843,16.408897 -0.31747,0.513687 0.29946,0.933976 1.37097,0.933976 1.60993,0 1.84605,0.406935 1.35993,2.34375 -0.36244,1.444128 -0.18938,2.34375 0.4509,2.34375 0.57152,0 1.03913,1.265625 1.03913,2.8125 0,3.422925 -1.52907,3.659953 -2.98578,0.462825 -0.58882,-1.292316 -1.68397,-2.241534 -2.43367,-2.109375 -0.7497,0.132169 -1.84093,-0.55343 -2.42495,-1.523543 -0.58402,-0.970113 -2.74935,-3.37512 -4.81185,-5.34446 -3.66693,-3.5013 -3.76852,-3.534914 -4.58618,-1.517408 -3.04233,7.506678 -6.36554,13.646773 -7.65359,14.141042 -2.61878,1.004929 -7.0562,0.629749 -10.2008,-0.862462 -3.40092,-1.613841 -8.02818,-0.592716 -8.02818,1.771631 0,0.72307 -0.66063,1.86294 -1.46807,2.53305 -0.80743,0.67012 -2.11569,2.47077 -2.90724,4.00146 -1.27191,2.4596 -1.27497,2.72004 -0.0263,2.24087 0.7771,-0.2982 2.04341,0.16765 2.81402,1.03522 2.12337,2.39053 6.27506,10.18914 6.27506,11.78717 0,1.11074 0.54927,1.23921 2.57812,0.60302 4.55674,-1.42886 8.58471,-1.86853 9.124,-0.99596 0.28864,0.46706 -0.22234,1.26861 -1.13553,1.78125 -1.52539,0.85632 -1.53321,0.98107 -0.0962,1.53482 0.90681,0.34945 2.02727,2.53332 2.66618,5.19659 0.95989,4.00127 0.87906,5.05026 -0.62664,8.13218 -1.08797,2.22692 -2.48946,3.64661 -3.78136,3.83048 -1.41661,0.20162 -2.14288,1.05074 -2.34375,2.7402 -0.48913,4.11382 -2.67525,3.7722 -2.40247,-0.37543 0.17592,-2.67511 -0.12328,-3.59442 -1.16987,-3.59442 -0.78217,0 -1.24931,0.62408 -1.05263,1.40625 0.19449,0.77344 0.37027,2.71163 0.39062,4.3071 0.0337,2.64764 0.31766,2.9114 3.25232,3.02172 4.85582,0.18254 9.21841,-2.07857 11.75105,-6.09051 3.83996,-6.08289 9.54736,-10.61331 13.3706,-10.61331 l 3.33154,0 -1.5595,2.64004 c -1.48149,2.50796 -1.45523,2.88243 0.52513,7.4859 1.43547,3.33684 2.97379,5.28944 4.93994,6.27028 1.57042,0.78342 2.9564,1.31711 3.07997,1.18597 0.12357,-0.13114 -1.43476,-3.7377 -3.46296,-8.01457 -2.02819,-4.27688 -3.44437,-8.16972 -3.14706,-8.65077 0.29731,-0.48106 -0.0755,-3.94274 -0.82828,-7.69262 -1.79963,-8.9637 -3.0019,-29.78673 -1.71981,-29.78673 1.06135,0 1.7065,4.15896 2.92733,18.87098 0.45479,5.48059 1.29091,10.83176 1.85806,11.89148 0.56715,1.05973 1.03118,3.50659 1.03118,5.43747 0,3.91706 1.82153,9.73757 3.04739,9.73757 4.36419,0 10.00531,-7.64195 14.76443,-20.0012 3.01504,-7.82996 2.95425,-10.642 -0.19368,-8.95728 -1.37626,0.73655 -1.60299,1.28613 -0.84379,2.04533 1.51252,1.51252 1.26963,4.12373 -0.44478,4.7816 -2.77772,1.06591 -5.0118,0.57243 -6.03112,-1.33221 -1.33498,-2.49441 -2.79845,-1.50013 -2.79845,1.90126 0,2.57422 -1.42174,4.51577 -2.50991,3.42758 -0.2806,-0.28059 -0.46554,-3.44255 -0.41098,-7.02659 0.0729,-4.79239 -0.24825,-6.64974 -1.21406,-7.02036 -0.72228,-0.27716 -1.59642,-1.79323 -1.94253,-3.36903 -0.3461,-1.57581 -1.01869,-3.10577 -1.49465,-3.39993 -1.64725,-1.01806 -0.94294,-4.17417 0.93151,-4.17417 0.98827,0 1.93749,-0.370519 2.10937,-0.823369 0.17187,-0.452859 1.89614,-1.890562 3.83171,-3.194906 l 3.5192,-2.371523 -2.81608,-2.369577 C 174.99448,87.978458 174.50173,86.25 176.884,86.25 c 2.58703,0 13.4285,11.646469 13.4285,14.42558 0,1.31581 0.84375,3.89461 1.875,5.73067 2.51905,4.48496 2.3607,8.74863 -0.58428,15.73137 -1.3526,3.20712 -3.07945,7.91254 -3.83746,10.45648 -0.9931,3.33297 -2.92258,6.23368 -6.9054,10.38137 l -5.52721,5.75602 2.6014,2.49229 c 4.93083,4.72405 3.18257,9.59473 -4.77418,13.30089 -2.68351,1.24996 -6.77756,3.55394 -9.09787,5.11998 -2.32031,1.56602 -4.85156,2.85558 -5.625,2.86569 -0.77344,0.0101 -2.03906,0.46671 -2.8125,1.01467 -1.03035,0.72997 0.16537,0.87471 4.47323,0.54147 4.51338,-0.34915 6.21713,-0.11719 7.33259,0.99828 2.00656,2.00656 0.19218,3.71159 -5.80715,5.45715 l -4.59242,1.33621 6.36607,-0.3554 c 9.55464,-0.53341 12.29228,3.3976 4.22121,6.06129 l -3.84613,1.26934 2.95755,0.76638 c 2.05909,0.53357 2.95755,1.32784 2.95755,2.61457 0,1.53901 -0.66654,1.85923 -3.98438,1.9141 -2.1914,0.0362 -4.82812,0.42845 -5.85937,0.8716 -1.51388,0.65054 -1.21268,0.81841 1.56395,0.8716 8.12754,0.15574 8.69413,3.07829 1.01417,5.2313 -2.96484,0.83117 -11.29687,3.3714 -18.51562,5.64497 -17.93811,5.64965 -24.1997,6.99006 -29.64206,6.3455 -4.48466,-0.53114 -5.62531,0.17051 -3.58846,2.20736 1.19957,1.19957 -4.81718,11.98632 -7.4811,13.412 -0.95197,0.50948 -2.61296,2.30832 -3.691108,3.99742 -1.078144,1.6891 -3.102581,4.7586 -4.498744,6.8211 -4.740184,7.00249 -10.33406,24.41732 -11.14209,34.6875 -0.202839,2.57812 -0.825184,11.01562 -1.382988,18.75 -0.557803,7.73437 -1.406155,15.53906 -1.885226,17.34375 -0.479072,1.80469 -1.533774,8.07692 -2.343784,13.9383 -0.810009,5.86137 -2.137737,12.61137 -2.950506,15 -1.201093,3.52986 -1.370756,6.92383 -0.90621,18.12813 0.511785,12.34369 0.365856,14.45115 -1.395528,20.15385 -1.081894,3.50276 -2.550699,7.20189 -3.264012,8.22029 -0.713314,1.0184 -1.298511,2.70697 -1.300438,3.75241 -0.002,1.04542 -0.784128,3.18085 -1.738224,4.74539 -0.954095,1.56455 -2.048842,4.93955 -2.432773,7.5 -0.38393,2.56046 -1.076257,5.36212 -1.538506,6.22593 -1.219328,2.27854 -1.672327,8.05515 -1.733179,22.10132 C 60.943577,441.09754 60.7585,442.5 59.352066,442.5 c -1.425405,0 -1.412562,0.1264 0.127251,1.25235 1.462684,1.06954 1.61584,2.02747 1.049225,6.5625 -0.364903,2.92058 -0.970871,5.31015 -1.346597,5.31015 -1.712579,0 -5.730555,-2.46216 -5.737131,-3.51563 -0.004,-0.64453 -0.429189,-1.17187 -0.944814,-1.17187 -2.366684,0 0.860816,3.91335 5.260294,6.37812 1.478546,0.82834 1.794896,2.20253 1.915948,8.32265 0.248173,12.54711 0.70652,14.54448 5.74366,25.02941 2.694857,5.60941 5.099692,11.30159 5.344077,12.6493 0.244386,1.34771 0.899128,2.60197 1.454983,2.78726 1.041678,0.34722 1.586577,0.92074 4.466805,4.70146 1.708789,2.24302 7.518196,4.77942 11.005896,4.80518 1.050728,0.008 3.37104,1.24505 5.15625,2.74951 2.598128,2.18955 3.013881,2.97339 2.083449,3.92801 -0.639309,0.65594 -1.693996,1.27755 -2.343747,1.38135 -0.649751,0.10381 -2.763396,0.49253 -4.69699,0.86383 -4.419991,0.84875 -4.539457,-0.13897 -0.234375,-1.93775 1.804687,-0.75404 3.28125,-1.80205 3.28125,-2.32889 0,-0.64493 -0.572349,-0.65159 -1.751735,-0.0204 -0.963453,0.51562 -2.007947,0.68129 -2.321094,0.36815 -0.313148,-0.31316 -1.174809,-0.0668 -1.914802,0.54725 -0.802179,0.66575 -1.566241,0.75936 -1.892271,0.23183 -0.300756,-0.48663 0.110299,-1.13695 0.913458,-1.44515 0.803157,-0.3082 1.180726,-1.0127 0.839042,-1.56556 -0.415084,-0.67161 -1.159294,-0.51826 -2.242615,0.46213 -2.064342,1.86821 -2.977051,1.87363 -2.263234,0.0134 0.453705,-1.18233 0.07191,-1.33189 -2.044254,-0.80077 -1.844802,0.46302 -2.408927,0.34045 -1.938247,-0.42113 1.196084,-1.9353 -0.695874,-1.12646 -3.379824,1.44492 -2.985268,2.86007 -3.620313,1.7105 -0.754424,-1.36567 2.742508,-2.94373 2.290534,-3.45204 -0.991477,-1.11504 -3.908506,2.7831 -4.568976,1.62778 -1.069821,-1.87137 1.570012,-1.56995 2.327746,-2.8545 1.683852,-2.8545 -0.643894,0 -2.193472,1.09343 -3.44351,2.42983 -2.74999,2.94 -6.171297,5.0056 -5.058961,3.05433 0.396745,-0.69597 1.550643,-2.18776 2.564219,-3.31508 1.838616,-2.04495 1.838255,-2.04847 -0.156696,-1.52678 C 63.946858,512.9797 60,517.33 60,518.8166 c 0,0.30712 1.220489,0.5584 2.712198,0.5584 1.546008,0 2.944227,0.60466 3.251826,1.40625 0.743025,1.93629 6.775259,1.88864 7.522802,-0.0594 0.309338,-0.80612 0.968861,-1.21448 1.465608,-0.90748 0.496748,0.30701 0.665529,1.1775 0.375069,1.93443 -0.57708,1.50384 0.645999,1.8473 2.063122,0.57935 0.511847,-0.45797 1.649273,0.002 2.674443,1.08069 1.776594,1.86997 1.76141,1.87551 -3.75,1.36889 -3.0436,-0.27977 -7.714744,-1.22542 -10.38032,-2.10145 -5.448283,-1.79054 -7.638494,-1.65476 -9.033079,0.56003 -1.08219,1.71866 -0.660482,2.34325 5.910831,8.75457 6.215562,6.06424 9.640633,8.89278 11.484375,9.48421 0.902344,0.28946 1.640625,0.8913 1.640625,1.33743 0,0.44613 0.82217,1.0721 1.827045,1.39103 2.263182,0.71831 3.375066,3.89054 1.960901,5.5945 -0.777793,0.93718 -4.057366,1.28233 -12.499329,1.31544 -11.103407,0.0436 -11.648623,-0.0504 -18.274272,-3.14987 z M 64.6875,545.625 c 1.732612,-1.54688 2.731274,-2.8125 2.21925,-2.8125 -0.512025,0 -2.1435,1.26562 -3.6255,2.8125 -1.482,1.54687 -2.480663,2.8125 -2.21925,2.8125 0.261413,0 1.892888,-1.26563 3.6255,-2.8125 z m 6.830357,2.23214 c 0.319196,-0.31919 -0.04413,-1.20484 -0.807386,-1.96809 -1.105373,-1.10538 -1.668562,-1.15469 -2.767858,-0.24236 -0.759061,0.62997 -1.380113,1.51561 -1.380113,1.9681 0,0.93203 4.066781,1.13093 4.955357,0.24235 z m 5.142512,-1.1195 c 0.228359,-0.68507 -0.200237,-0.8946 -1.113281,-0.54422 -0.816524,0.31333 -1.484588,0.98158 -1.484588,1.48501 0,1.23224 2.130732,0.46063 2.597869,-0.94079 z m -16.000562,-4.39389 c 2.363527,-1.80469 3.785323,-3.28125 3.159547,-3.28125 -1.169093,0 -9.444354,5.37889 -9.444354,6.13879 0,1.18984 2.432753,0.0837 6.284807,-2.85754 z m -4.385456,-1.13761 c 4.11051,-3.06878 5.698514,-4.95614 4.170048,-4.95614 -0.937221,0 -9.819399,6.96517 -9.819399,7.70011 0,1.25667 0.831849,0.85263 5.649351,-2.74397 z m 1.809931,-5.41196 c 2.113957,-0.67095 1.611556,-2.96681 -0.817963,-3.73792 -1.936152,-0.6145 -6.603074,1.56166 -8.978764,4.18677 -2.561481,2.83041 -0.273082,2.2616 3.743695,-0.93053 3.495567,-2.77792 5.607614,-3.60947 5,-1.96857 -0.423056,1.14248 -9.455197,8.53107 -10.428768,8.53107 -0.426601,0 -0.519004,0.41525 -0.205339,0.92276 0.315455,0.51042 2.647486,-0.71915 5.218699,-2.75158 2.55662,-2.02089 5.467417,-3.93429 6.46844,-4.252 z m -16.350613,0.38789 c 0.406082,-1.84887 1.971729,-3.83237 4.431539,-5.61425 4.735569,-3.43042 5.928835,-3.50059 3.780822,-0.22231 -1.621352,2.4745 -1.616437,2.51536 0.212763,1.76864 1.029851,-0.42041 2.610738,-0.97666 3.513082,-1.2361 2.270474,-0.65284 2.051603,-1.81554 -0.678495,-3.60437 -2.174618,-1.42487 -2.510503,-1.39754 -5.390625,0.43862 -1.689328,1.07699 -4.301974,3.22762 -5.80588,4.77918 -1.503906,1.55156 -3.296875,2.82102 -3.984375,2.82102 -1.662222,0 -1.57657,0.89776 0.281544,2.95095 1.908988,2.1094 2.835554,1.57954 3.639625,-2.08138 z m 5.104837,-2.60049 c -0.614822,-0.20493 -1.484481,0.20615 -1.932576,0.91353 -1.481891,2.33937 -0.874669,3.01126 1.103502,1.22104 1.257815,-1.1383 1.551266,-1.89383 0.829074,-2.13457 z m -6.992883,-3.14118 c 2.214542,-1.70316 4.965788,-3.72946 6.113879,-4.5029 6.001635,-4.04314 5.941676,-3.32238 1.100048,-13.22333 -2.421815,-4.95254 -5.132874,-9.72005 -6.024574,-10.59449 -1.280129,-1.25536 -1.531411,-2.71417 -1.194203,-6.93292 0.234888,-2.93865 0.901077,-12.09301 1.480418,-20.34301 0.579341,-8.25 1.19373,-16.26562 1.365307,-17.8125 0.171578,-1.54687 0.340432,-6.50391 0.375231,-11.01562 0.04216,-5.46538 0.419006,-8.20313 1.129159,-8.20313 1.042421,0 0.642764,28.3169 -0.60204,42.65625 -0.416279,4.79527 -0.325468,5.27928 0.61563,3.28125 0.672915,-1.42866 1.386287,-10.94566 1.827091,-24.375 0.397733,-12.11719 1.008919,-24.24609 1.358191,-26.95312 C 47.927268,428.25592 47.792521,427.5 46.512399,427.5 45.524173,427.5 45,426.68769 45,425.15625 c 0,-2.91001 0.732907,-3.00307 1.845786,-0.23438 0.821405,2.04355 0.84972,2.03065 0.90729,-0.41341 0.03268,-1.38754 0.515406,-2.80462 1.072718,-3.14906 0.557311,-0.34443 0.92253,-2.37323 0.811597,-4.50844 -0.309957,-5.96598 -0.158623,-6.41856 1.925109,-5.75721 1.50885,0.47889 1.872197,0.17085 1.860644,-1.57745 -0.01128,-1.70628 -0.201655,-1.87638 -0.887067,-0.79258 -0.746372,1.18021 -0.963302,1.14391 -1.498482,-0.25075 -0.351934,-0.91713 0.89451,-6.44399 2.84837,-12.62997 4.826326,-15.28031 4.921137,-15.66453 6.047454,-24.50769 1.285444,-10.09253 1.275334,-16.57673 -0.02964,-19.01511 -1.391991,-2.60096 -0.05189,-12.38627 5.722843,-41.78781 3.774661,-19.21834 3.956118,-33.05876 0.503204,-38.38138 -4.442436,-6.84796 -5.259,-7.25202 -1.840305,-0.91063 2.330738,4.32332 3.140353,6.70475 2.497846,7.34726 -0.642506,0.64251 -1.649623,-0.29306 -3.107183,-2.88644 -1.512454,-2.69105 -2.389773,-3.48545 -2.937412,-2.65976 -0.583103,0.87916 -1.250883,0.61681 -2.636812,-1.03592 -1.020776,-1.21729 -1.908689,-1.95557 -1.973143,-1.64063 -0.06445,0.31494 -0.179389,1.09995 -0.255414,1.74448 -0.07602,0.64454 -0.86704,1.04791 -1.757812,0.89641 C 52.937392,272.8047 52.5,273.37437 52.5,275.11515 c 0,2.48287 -2.262766,3.36001 -3.129112,1.21297 -0.260074,-0.64453 -0.512627,-0.11718 -0.56123,1.17188 -0.0486,1.28906 -0.503785,2.97656 -1.011514,3.75 -0.820572,1.25 -1.025716,1.25 -1.846288,0 -0.749736,-1.14209 -0.925841,-1.01002 -0.9375,0.70312 -0.0084,1.24363 -0.591526,2.10938 -1.420606,2.10938 -0.773438,0 -1.40625,-0.44678 -1.40625,-0.99283 0,-0.54606 -0.421875,-0.73209 -0.9375,-0.41342 -0.515625,0.31867 -0.9375,1.56225 -0.9375,2.7635 0,1.74032 -0.645694,2.30522 -3.17795,2.78027 -2.068698,0.38808 -3.346985,1.24258 -3.662231,2.44808 -0.287733,1.1003 -1.280885,1.8519 -2.44705,1.8519 -1.443007,0 -1.962769,0.59169 -1.962769,2.23441 0,1.48164 -0.663461,2.4079 -1.969327,2.7494 -1.151932,0.30123 -1.698981,0.95241 -1.317991,1.56887 1.007675,1.63046 -0.333168,5.63482 -1.886793,5.63482 -0.763614,0 -1.388389,0.54844 -1.388389,1.21875 0,0.67031 -0.483687,1.70243 -1.074861,2.29361 -1.828641,1.82864 -2.079012,44.6536 -0.382261,65.38456 1.889121,23.08136 1.833416,29.51559 -0.373444,43.13433 -1.002658,6.1875 -2.35705,16.94531 -3.009758,23.90625 -1.353393,14.43353 -1.76137,49.00331 -0.652773,55.3125 0.407705,2.32031 1.170389,7.17187 1.694851,10.78125 0.943035,6.49 5.356011,21.68502 7.41533,25.5329 1.658937,3.09975 8.519955,2.19455 13.728539,-1.81125 z M 58.125,517.56697 c 0,-0.4788 0.527344,-1.44115 1.171875,-2.13856 4.337755,-4.69364 4.616784,-5.62659 0.755087,-2.52466 -4.556977,3.6604 -5.711821,5.53375 -3.411337,5.53375 0.816406,0 1.484375,-0.39174 1.484375,-0.87053 z m 0.811444,-6.36948 c 1.173243,-1.17325 1.179458,-1.48677 0.04372,-2.20572 -0.728156,-0.46093 -1.956732,-0.83805 -2.730169,-0.83805 -1.162729,0 -1.182517,0.1417 -0.114267,0.81832 1.297481,0.82181 0.71438,2.90296 -0.813357,2.90296 -1.251866,0 -1.590095,-4.00011 -0.505798,-5.98186 0.702998,-1.28486 0.646792,-1.87823 -0.207203,-2.18751 -1.52609,-0.55266 -1.517288,-2.14313 0.01186,-2.14313 0.651056,0 1.975773,1.05469 2.943819,2.34375 1.952838,2.60043 4.309946,3.11315 4.309946,0.9375 0,-0.77344 -0.316406,-1.40885 -0.703125,-1.41202 -1.47785,-0.0121 -10.546875,-9.15201 -10.546875,-10.6293 0,-1.53386 2.363933,-2.21014 2.96875,-0.84931 0.309494,0.69637 8.384833,7.23026 11.09375,8.97615 2.136102,1.3767 -7.871312,-8.04705 -10.426755,-9.81865 -1.226223,-0.85009 -1.919449,-1.86326 -1.540504,-2.25149 0.378944,-0.38822 3.121132,0.94013 6.09375,2.95188 2.972618,2.01175 5.670533,3.78149 5.995368,3.93274 0.324835,0.15124 -0.400253,-1.74719 -1.611307,-4.21875 -1.211055,-2.47156 -2.215109,-5.02109 -2.231234,-5.66563 -0.01613,-0.64453 -0.858389,-1.17187 -1.871697,-1.17187 -1.013308,0 -3.283846,-1.26563 -5.045639,-2.8125 -3.617789,-3.17646 -4.361982,-3.41638 -4.361982,-1.40625 0,0.77344 0.597656,1.40625 1.328125,1.40625 0.730468,0 1.46875,0.31641 1.640625,0.70312 0.171875,0.38672 2.105469,1.92066 4.296875,3.40875 3.85847,2.62014 5.037608,4.32563 2.990633,4.32563 -0.546557,0 -2.96325,-1.50383 -5.370426,-3.34185 -2.692533,-2.0559 -4.518614,-2.91606 -4.745525,-2.23532 -0.202863,0.60859 0.209923,1.51172 0.917301,2.00697 0.996167,0.69743 1.021929,1.00766 0.114267,1.37594 -1.397973,0.56725 -1.537154,8.41669 -0.246697,13.91301 0.780375,3.32377 0.647253,3.92842 -1.17123,5.31971 l -2.051676,1.56971 2.466536,0.61907 c 1.356595,0.34049 2.687729,1.4649 2.958077,2.49871 0.384479,1.47026 0.955783,1.73232 2.622978,1.20317 1.172291,-0.37207 2.746877,-1.29193 3.499081,-2.04413 z M 43.618283,492.51771 c -1.200285,-1.34254 -1.913086,2.79857 -0.884671,5.13961 0.53396,1.21547 0.81453,0.93828 1.266321,-1.25107 0.319211,-1.54688 0.147469,-3.29672 -0.38165,-3.88854 z M 59.0625,480.9375 c -0.551908,-1.03125 -1.380367,-1.875 -1.84102,-1.875 -0.460653,0 -1.40816,-0.52734 -2.105571,-1.17188 -3.859586,-3.56694 -5.428409,-4.63125 -5.428409,-3.68272 0,0.93382 8.879906,8.6046 9.96092,8.6046 0.229652,0 -0.03401,-0.84375 -0.58592,-1.875 z m -1.875,-5.91835 c 0,-0.67697 -1.276481,-2.4538 -2.836626,-3.94851 -1.560144,-1.49472 -2.64147,-3.22624 -2.402946,-3.84782 0.238524,-0.62158 -0.172495,-1.36276 -0.913374,-1.64706 -1.000944,-0.3841 -1.347054,0.26667 -1.347054,2.53278 0,2.39435 0.604372,3.40671 2.8125,4.71108 1.546875,0.91376 2.8125,2.05941 2.8125,2.54589 0,0.48647 0.421875,0.88449 0.9375,0.88449 0.515625,0 0.9375,-0.55388 0.9375,-1.23085 z M 56.25,468.75 c 0,-0.51563 -0.446773,-0.9375 -0.992828,-0.9375 -0.546056,0 -0.732096,0.42187 -0.413422,0.9375 0.318674,0.51562 0.765446,0.9375 0.992828,0.9375 0.227383,0 0.413422,-0.42188 0.413422,-0.9375 z m -1.933691,-5.60633 c -1.772408,-1.51524 -3.609253,-2.77212 -4.081881,-2.79307 -0.472626,-0.021 0.792999,1.39632 2.8125,3.1495 2.019503,1.75318 3.856348,3.01006 4.081881,2.79307 0.225531,-0.217 -1.040094,-1.63427 -2.8125,-3.1495 z m 0.709537,-4.31717 c -2.938765,-2.52941 -5.345357,-3.12543 -3.463346,-0.85775 0.641896,0.77344 1.703104,1.40625 2.35824,1.40625 0.655135,0 1.45716,0.6932 1.782276,1.54043 0.325115,0.84724 0.897595,1.23323 1.272177,0.85775 0.374581,-0.37548 -0.502625,-1.70149 -1.949347,-2.94668 z m -1.607149,-11.19291 c -0.652237,-0.7859 -1.429957,-1.18483 -1.728266,-0.88652 -0.298309,0.2983 0.07822,0.93486 0.836719,1.41455 1.98466,1.25513 2.243978,1.10155 0.891547,-0.52803 z m 1.85625,-3.76609 c -1.944794,-2.00651 -3.368849,-2.86705 -3.599493,-2.17511 -0.209895,0.62968 0.838981,2.12158 2.330835,3.31534 4.120904,3.29747 4.895272,2.60149 1.268658,-1.14023 z m 0.3969,-5.49409 c -4.523993,-3.97765 -5.820123,-2.94388 -1.531222,1.22128 1.417969,1.37705 2.950768,2.20035 3.406222,1.82955 0.455453,-0.3708 -0.388297,-1.74368 -1.875,-3.05083 z m 2.401282,-3.13904 c -0.02853,-0.38671 -1.294154,-1.68443 -2.8125,-2.8838 -3.197089,-2.52545 -3.808371,-0.86893 -0.651254,1.76484 2.229,1.85951 3.549864,2.28621 3.463754,1.11896 z m -2.24112,-8.06714 C 54.05621,425.39144 53.4375,425.15149 53.4375,426.2386 c 0,2.06383 4.12891,6.28196 4.503884,4.60121 0.156824,-0.70294 -0.792395,-2.35559 -2.109375,-3.67258 z M 55.631923,421.71 c -0.991838,-1.09597 -1.819572,-1.4283 -2.024703,-0.81291 -0.471782,1.41535 1.70098,3.90373 2.810077,3.21826 0.499935,-0.30897 0.154566,-1.36673 -0.785374,-2.40535 z m 1.153792,-6.93322 c -0.992799,-0.72595 -2.04616,-1.07883 -2.340803,-0.7842 -0.294643,0.29465 0.276576,1.12968 1.269373,1.85564 0.992799,0.72595 2.04616,1.07883 2.340803,0.7842 0.294643,-0.29465 -0.276576,-1.12968 -1.269373,-1.85564 z M 59.0625,410.3125 c 0,-3.15154 -1.029489,-3.72336 -2.618658,-1.45451 -1.168033,1.6676 -1.180979,2.09748 -0.08408,2.79218 2.070936,1.31161 2.702742,0.9989 2.702742,-1.33767 z m 0.353407,-20.4389 c 0.29547,-1.47736 0.356635,-2.6861 0.135922,-2.6861 -0.537682,0 -6.128575,17.51972 -6.061871,18.99559 0.06578,1.45543 5.197907,-12.66929 5.925949,-16.30949 z m 0.237781,13.70117 c -0.317869,-0.82836 -1.023285,-1.23088 -1.56759,-0.89447 -0.679636,0.42003 -0.63986,1.03309 0.126973,1.95707 1.362218,1.64137 2.232034,0.99979 1.440617,-1.0626 z m 1.752562,-5.13727 c -0.453585,-0.73391 -0.992877,-0.78837 -1.617877,-0.16337 -0.515625,0.51563 -0.63133,1.43289 -0.257123,2.03837 0.453585,0.73391 0.992877,0.78837 1.617877,0.16337 0.515625,-0.51563 0.63133,-1.43289 0.257123,-2.03837 z m 2.109813,-3.98438 c -0.214603,-0.64453 -1.185549,-1.326 -2.157657,-1.51438 -1.529156,-0.29632 -1.598009,-0.13831 -0.510646,1.17188 1.487062,1.7918 3.225144,2.0149 2.668303,0.3425 z M 64.6875,390 c -1.835974,-1.1865 -3.077046,-1.1865 -2.34375,0 0.318674,0.51562 1.29279,0.93104 2.164703,0.92315 1.366196,-0.0124 1.390941,-0.13996 0.179047,-0.92315 z m 0.171875,-4.89063 C 64.18666,384.43666 63.75,384.38131 63.75,384.96875 c 0,1.25135 1.108697,2.36005 1.734375,1.73437 0.266407,-0.2664 -0.01484,-0.98359 -0.625,-1.59375 z M 66.5625,381.5625 c -0.743573,-0.45955 -1.562887,-0.62461 -1.820699,-0.3668 -0.257813,0.25782 0.139626,0.84475 0.883199,1.3043 0.743572,0.45955 1.562887,0.62461 1.820699,0.3668 0.257813,-0.25782 -0.139627,-0.84475 -0.883199,-1.3043 z m 1.474688,-4.27218 c -2.305737,-1.7019 -2.864405,-1.13703 -1.463794,1.48003 0.839807,1.5692 1.35719,1.79522 2.185332,0.95469 0.82383,-0.83616 0.650137,-1.42227 -0.721538,-2.43472 z m 2.275312,-2.61377 c 0,-0.1779 -0.84375,-1.08703 -1.875,-2.0203 -2.209283,-1.99938 -2.544782,-1.27246 -0.401785,0.87053 1.407459,1.40746 2.276785,1.84647 2.276785,1.14977 z m -1.875,-7.53051 c 0,-0.19467 -0.64247,-0.88716 -1.427711,-1.53885 -1.193763,-0.99073 -1.330948,-0.93274 -0.837198,0.35396 0.504277,1.31412 2.264909,2.23521 2.264909,1.18489 z m 0,-8.08354 c -3.050028,-3.85098 -3.75,-4.38941 -3.75,-2.88461 0,0.89503 5.402221,6.63461 6.244642,6.63461 0.261478,0 -0.861112,-1.6875 -2.494642,-3.75 z m -0.473951,-5.63075 c -0.93613,-1.03441 -1.950071,-1.63273 -2.253203,-1.3296 -0.303131,0.30313 0.267102,1.14947 1.267187,1.88075 2.568646,1.87824 2.977673,1.64961 0.986016,-0.55115 z m 4.145826,-0.25953 c -0.214844,-0.14591 -1.234375,-0.88419 -2.265625,-1.64063 -1.734381,-1.2722 -1.778504,-1.2523 -0.588333,0.26528 0.707666,0.90235 1.727198,1.64063 2.265625,1.64063 0.538426,0 0.803176,-0.11938 0.588333,-0.26528 z M 71.25,346.92727 c 0,-1.51406 -4.625284,-6.28067 -4.657874,-4.80019 -0.01629,0.7402 0.887662,2.32223 2.008793,3.51562 2.253075,2.39829 2.649081,2.59032 2.649081,1.28457 z m -8.734581,-3.04055 c -0.299274,-0.74787 -0.521421,-0.52573 -0.566406,0.56641 -0.04071,0.98827 0.18087,1.54199 0.492394,1.23047 0.311522,-0.31153 0.344829,-1.12013 0.07402,-1.79688 z M 71.25,340.83658 c 0,-0.22738 -0.421875,-0.67416 -0.9375,-0.99283 -0.515625,-0.31867 -0.9375,-0.13264 -0.9375,0.41342 0,0.54606 0.421875,0.99283 0.9375,0.99283 0.515625,0 0.9375,-0.18604 0.9375,-0.41342 z m -0.500469,-4.30041 c 0.974372,0.80866 1.841033,0.93576 2.421638,0.35516 0.580605,-0.58061 -0.104645,-1.65008 -1.914732,-2.98833 -2.126419,-1.57213 -2.818937,-1.7506 -2.818937,-0.72649 0,0.7467 -0.250734,2.13042 -0.557186,3.07494 -0.441887,1.36193 -0.359673,1.43878 0.397297,0.37133 0.802214,-1.13124 1.196564,-1.14505 2.47192,-0.0866 z M 74.0625,331.875 c 0,-0.51563 -0.421875,-0.9375 -0.9375,-0.9375 -0.515625,0 -0.9375,0.42187 -0.9375,0.9375 0,0.51562 0.421875,0.9375 0.9375,0.9375 0.515625,0 0.9375,-0.42188 0.9375,-0.9375 z m -7.166735,-12.65625 c 0.36182,-2.36508 0.285372,-3.05753 -0.207001,-1.875 -1.142308,2.74349 -2.137053,8.73222 -1.167912,7.03125 0.440672,-0.77344 1.059383,-3.09375 1.374913,-5.15625 z m 7.674034,4.28112 C 74.229923,322.94994 73.50321,322.5 72.954879,322.5 c -0.621649,0 -0.550529,0.53792 0.188923,1.42891 1.28582,1.54931 2.435,1.20356 1.425997,-0.42904 z m 1.367701,-3.70455 c 0,-0.45632 -1.160156,-1.57185 -2.578125,-2.47895 l -2.578125,-1.64926 2.272794,2.47894 c 2.457408,2.68031 2.883456,2.924 2.883456,1.64927 z m -7.816612,-8.7797 c -0.260074,-0.64453 -0.472861,-0.11718 -0.472861,1.17188 0,1.28906 0.212787,1.81641 0.472861,1.17187 0.260074,-0.64453 0.260074,-1.69921 0,-2.34375 z M 77.8125,310.4578 c 0,-0.95133 -0.738281,-2.38847 -1.640625,-3.19363 -1.375079,-1.22698 -1.82879,-1.25852 -2.803166,-0.19486 -0.641553,0.70034 -0.782472,1.50397 -0.314447,1.79322 0.466451,0.28829 1.062946,-0.006 1.325543,-0.65356 0.360994,-0.89046 0.716197,-0.83472 1.456279,0.22853 0.61875,0.88894 0.642857,1.52193 0.06553,1.7207 -1.082781,0.37279 -0.243051,2.0293 1.028713,2.0293 0.485195,0 0.882172,-0.77837 0.882172,-1.7297 z m -64.511619,-6.23905 c 1.321949,-3.22853 21.177038,-23.57257 28.948651,-29.66153 11.308105,-8.85977 19.858081,-15.92353 23.915628,-19.75844 2.337921,-2.20965 5.176712,-4.43941 6.308428,-4.95503 4.175027,-1.9022 21.303384,-21.77124 19.67871,-22.82748 -0.516075,-0.33551 -1.676321,-2.85219 -2.578324,-5.59263 -0.902004,-2.74043 -1.856739,-4.76587 -2.121634,-4.50098 -0.264895,0.2649 -0.01098,1.83174 0.564266,3.48188 1.355093,3.88723 1.318461,4.59546 -0.237692,4.59546 -0.740285,0 -1.508737,-1.38745 -1.815525,-3.27796 -0.729632,-4.4962 -6.63365,-13.78781 -10.03925,-15.79956 -1.539527,-0.90942 -2.799139,-2.00231 -2.799139,-2.42864 0,-0.42633 -0.814735,-0.98822 -1.810523,-1.24862 -2.642897,-0.69113 -7.738961,-11.48832 -12.774148,-27.06496 -2.393303,-7.40384 -4.650454,-14.26445 -5.015893,-15.24582 -0.481257,-1.2924 -1.617126,1.0875 -4.120155,8.63264 C 43.791947,185.48493 42.282339,188.20443 34.731205,195 16.387765,211.50801 18.188754,209.27962 15.150106,219.22797 5.0127406,252.4171 2.0695643,271.99252 3.9015461,294.04353 c 0.5506185,6.62762 1.4045337,12.30456 1.8975893,12.61543 0.4930556,0.31087 2.1235426,0.5218 3.623304,0.46875 2.1053076,-0.0744 2.9893256,-0.73751 3.8784416,-2.90896 z m 47.765903,-77.52172 c -0.442588,-1.19117 -1.099164,-4.90797 -1.459058,-8.25953 -0.359895,-3.35156 -1.278106,-8.53475 -2.040469,-11.51819 -1.310436,-5.12828 -1.128436,-7.80518 0.463762,-6.82115 0.964661,0.5962 2.65769,8.68342 3.802539,18.16388 0.51761,4.28631 1.16744,8.1595 1.444068,8.60709 0.276627,0.4476 0.07342,1.07929 -0.451589,1.40376 -0.525001,0.32447 -1.316666,-0.38467 -1.759253,-1.57586 z m 2.26991,-6.47509 c -0.360566,-3.65918 -0.408046,-6.90058 -0.10551,-7.20312 1.315867,-1.31587 2.632539,1.95286 3.091933,7.67595 0.409534,5.10193 0.249472,6.18023 -0.917379,6.18023 -1.065256,0 -1.574972,-1.639 -2.069044,-6.65306 z m -7.416804,-2.82072 c -0.238645,-1.23473 -0.894811,-4.492 -1.458145,-7.23837 -1.24033,-6.04685 -1.320363,-10.47535 -0.189313,-10.47535 0.459213,0 1.046428,1.37109 1.304924,3.04687 0.258495,1.67579 0.957101,5.74833 1.552459,9.05011 0.715233,3.9666 0.767214,6.31849 0.153221,6.93248 -0.613992,0.614 -1.076448,0.16762 -1.363146,-1.31574 z M 78.75,300.10782 c 0,-1.92333 -0.74479,-3.184 -2.578125,-4.36387 l -2.578125,-1.6592 1.798307,2.0338 c 0.989069,1.1186 1.903131,2.97687 2.03125,4.1295 0.286267,2.57543 0.282594,2.56445 0.857943,2.56445 0.257812,0 0.46875,-1.21711 0.46875,-2.70468 z m 0.9375,-6.4448 c 0,-0.3916 -0.85327,-1.24487 -1.896158,-1.89616 -1.758746,-1.09836 -1.810342,-1.04676 -0.711987,0.71198 1.179826,1.8892 2.608145,2.5377 2.608145,1.18418 z m -8.627583,-5.03926 c -0.295198,-1.87659 -0.427237,-1.74454 -0.858828,0.85882 -0.308853,1.86302 -0.171274,2.7376 0.348829,2.2175 0.472356,-0.47235 0.701856,-1.8567 0.509999,-3.07632 z m 4.877583,0.65032 c 0,-0.22738 -0.421875,-0.67416 -0.9375,-0.99283 -0.515625,-0.31867 -0.9375,-0.13264 -0.9375,0.41342 0,0.54606 0.421875,0.99283 0.9375,0.99283 0.515625,0 0.9375,-0.18604 0.9375,-0.41342 z m -4.975321,-6.83436 c -0.237697,-0.91216 -0.447809,-0.39285 -0.466914,1.15403 -0.01911,1.54687 0.175373,2.29318 0.432176,1.65847 0.256803,-0.63472 0.272435,-1.90035 0.03473,-2.8125 z M 80.625,283.125 c 0,-1.03125 -0.84375,-2.71875 -1.875,-3.75 -1.03125,-1.03125 -1.875,-1.5375 -1.875,-1.125 0,0.4125 0.499219,1.24922 1.109375,1.85937 0.610157,0.61016 0.786601,1.43216 0.392099,1.82666 -0.394502,0.39449 -1.311236,-0.095 -2.037189,-1.08781 -1.473502,-2.01514 -2.818758,-1.42531 -1.944632,0.85262 0.496352,1.29347 3.52864,3.07082 5.527222,3.23973 0.386719,0.0327 0.703125,-0.78432 0.703125,-1.81557 z m -0.669681,-7.51461 c -0.271779,-1.03928 -0.930279,-2.15915 -1.463333,-2.4886 -0.533054,-0.32945 -0.758119,-0.21741 -0.500142,0.24898 0.257975,0.46639 0.731793,1.58626 1.052928,2.4886 0.805831,2.26427 1.51693,2.06983 0.910547,-0.24898 z m -7.428795,-0.45414 c -0.570558,-1.48686 -2.214024,-1.95079 -2.214024,-0.625 0,0.99142 1.024768,2.03125 2.001827,2.03125 0.413505,0 0.508994,-0.63281 0.212197,-1.40625 z m -12.926217,-6.8192 c -1.619768,-1.54708 -1.644914,-1.52193 -0.571365,0.57137 0.617635,1.20431 1.380085,1.93256 1.694336,1.6183 0.31425,-0.31425 -0.191086,-1.2996 -1.122971,-2.18967 z m 10.623753,-2.99433 c -1.670507,-2.07872 -2.719557,-4.09606 -2.331223,-4.48298 0.388334,-0.38692 1.524046,0.30549 2.523804,1.53869 0.999758,1.23321 1.997102,2.06283 2.216322,1.8436 0.586518,-0.58651 -1.695464,-4.82444 -2.789213,-5.1799 -1.555635,-0.50558 -7.176454,3.38198 -6.491717,4.4899 0.433793,0.70189 0.885396,0.62376 1.438268,-0.24882 0.628059,-0.99123 1.389399,-0.65124 3.44968,1.54054 1.454065,1.54687 2.986219,3.65625 3.404785,4.6875 0.467739,1.15239 0.92589,1.43488 1.188805,0.73298 0.235276,-0.6281 -0.939004,-2.84279 -2.609511,-4.92151 z m -0.84906,3.75276 c 0,-0.49748 -0.84375,-1.35607 -1.875,-1.90798 -2.064943,-1.10513 -2.519614,-0.0821 -0.75,1.6875 1.355464,1.35547 2.625,1.4621 2.625,0.22048 z m 8.18701,-5.7107 c -0.632275,-1.01243 -1.296243,-1.40083 -1.475485,-0.8631 -0.522346,1.56704 0.688855,3.90055 1.700154,3.27553 0.587208,-0.36292 0.505175,-1.24376 -0.224669,-2.41243 z m 2.338372,-4.95279 c -1.007499,-1.11415 -2.298476,-2.86949 -2.86884,-3.90074 -1.00673,-1.82022 -1.037859,-1.81338 -1.065534,0.23437 -0.01568,1.16016 0.393367,2.10938 0.908992,2.10938 0.515625,0 0.9375,0.53894 0.9375,1.19765 0,0.65871 0.731725,2.24074 1.626057,3.51562 1.442661,2.05655 1.663705,2.1235 1.959849,0.59372 0.183585,-0.94835 -0.490527,-2.63585 -1.498024,-3.75 z m -6.208975,-2.24059 c -0.952984,-0.95297 -1.739295,0.48178 -0.957392,1.74692 0.590658,0.95571 0.811478,0.95645 1.129033,0.004 0.21712,-0.65136 0.139881,-1.43918 -0.171641,-1.7507 z m 9.862425,-4.2539 c -0.925889,-0.919 -1.033575,-0.81132 -0.524807,0.52481 0.35206,0.92458 0.876273,1.44489 1.164918,1.15625 0.288644,-0.28865 5.94e-4,-1.04512 -0.64011,-1.68106 z m 10.071481,-30.38293 c -1.359222,-3.9487 -3.678975,-8.0634 -4.233361,-7.50902 -0.194735,0.19473 0.334426,2.00087 1.175915,4.01363 0.841488,2.01277 1.913517,4.6673 2.382285,5.89897 1.398498,3.67447 2.013592,1.48471 0.675161,-2.40358 z m 8.562187,2.97668 c 0,-0.79031 -0.83744,-1.40625 -1.91197,-1.40625 -1.603646,0 -1.717027,0.22102 -0.703121,1.37059 1.572291,1.78267 2.615091,1.79689 2.615091,0.0356 z m -5.297494,-5.65503 c -0.468272,-1.22029 -2.202506,-1.9952 -2.202506,-0.98415 0,1.39285 1.267425,3.26469 1.932291,2.85377 0.439078,-0.27136 0.560672,-1.11269 0.270215,-1.86962 z m 2.270147,-1.552 c -0.204103,-0.61231 -0.872353,-1.28037 -1.485009,-1.48459 -0.685078,-0.22836 -0.8946,0.20024 -0.544228,1.11328 0.653925,1.70411 2.5917,2.05868 2.029237,0.37131 z m 8.114027,-2.0112 c -0.32988,-0.85966 -1.18746,-1.56302 -1.90573,-1.56302 -1.60233,0 -1.62752,0.44802 -0.15755,2.80182 1.31545,2.10638 2.96654,1.11505 2.06328,-1.2388 z m -14.062445,-2.35819 c -0.816142,-1.63599 -1.868368,-2.73692 -2.338279,-2.4465 -0.469912,0.29042 -0.01493,1.4291 1.011079,2.53038 1.026006,1.10129 1.865465,2.41498 1.865465,2.91932 0,0.50434 0.212766,0.7042 0.472819,0.44416 0.260043,-0.26006 -0.194944,-1.81137 -1.011084,-3.44736 z m -7.399742,-0.0829 C 84.444855,210.2282 82.5,208.28664 82.5,209.56557 c 0,0.79288 3.743133,6.05943 4.306663,6.05943 0.235944,0 -0.211659,-1.23887 -0.99467,-2.75305 z m 15.945307,0.94042 c -0.33988,-0.54994 -1.06659,-0.99988 -1.61492,-0.99988 -0.621655,0 -0.550527,0.53792 0.18893,1.42891 1.28582,1.54931 2.43499,1.20356 1.42599,-0.42904 z M 97.5,212.86783 c 0,-0.48519 -0.421875,-1.1429 -0.9375,-1.46158 -0.515625,-0.31868 -0.9375,0.0783 -0.9375,0.88217 0,0.80387 0.421875,1.46158 0.9375,1.46158 0.515625,0 0.9375,-0.39698 0.9375,-0.88217 z m -8.4375,-0.83658 c 0,-1.2207 -1.114475,-2.03253 -2.021055,-1.47224 -0.96958,0.59924 -0.133542,2.25349 1.138883,2.25349 0.485195,0 0.882172,-0.35156 0.882172,-0.78125 z m 31.875,-3.33033 c 0,-0.19888 -0.63049,-1.56997 -1.40108,-3.04688 -1.72464,-3.30541 -1.01536,-10.4682 1.54076,-15.55964 l 1.75682,-3.49935 -6.4523,2.32748 c -3.54877,1.2801 -7.18596,2.32747 -8.08265,2.32747 -0.89669,0 -4.0097,-1.24016 -6.91782,-2.75592 -7.468283,-3.89259 -11.47148,-4.80487 -14.273019,-3.25266 -2.967606,1.64422 -3.355907,1.61868 -4.08003,-0.26836 -0.361069,-0.94093 0.17177,-2.64672 1.305948,-4.18078 2.277421,-3.08038 2.361682,-4.29806 0.548875,-7.93191 -1.204605,-2.4147 -1.194257,-3.32948 0.08711,-7.70065 1.333164,-4.54786 1.32029,-5.5065 -0.154774,-11.52563 -1.390903,-5.6757 -1.448364,-7.32159 -0.424109,-12.1481 1.54652,-7.28753 0.641888,-15.56208 -2.345981,-21.45835 -1.296763,-2.55905 -2.357753,-5.29964 -2.357753,-6.09023 0,-3.07411 1.725538,-1.15947 4.625818,5.13277 1.665614,3.61359 3.394401,6.34397 3.841749,6.06749 3.163403,-1.95509 3.27233,12.44447 0.13437,17.76291 -1.18218,2.00365 -1.541448,3.56439 -1.01267,4.39926 0.450737,0.71165 0.825981,2.24313 0.833877,3.40329 0.0079,1.16015 0.399349,2.10937 0.869895,2.10937 0.955086,0 4.859827,10.26674 6.497452,17.08373 1.868672,7.77882 5.941189,15.57137 8.744749,16.73265 5.42641,2.24768 14.88002,-0.93825 18.51192,-6.23866 1.96912,-2.87375 2.14477,-3.94589 1.71498,-10.46782 -0.61282,-9.29921 -4.70499,-17.76549 -12.9525,-26.7974 -5.17695,-5.6693 -5.90083,-6.93647 -6.29279,-11.01562 -0.37751,-3.92875 -0.73677,-4.61127 -2.433,-4.62218 -6.785319,-0.0437 -7.674322,-1.76583 -12.334006,-23.89345 -1.047632,-4.974928 -2.231006,-8.068416 -3.514879,-9.188334 -1.899091,-1.656557 -2.051528,-1.574527 -8.100863,4.359272 -3.390944,3.326182 -7.892795,6.908742 -10.004115,7.961232 -3.556946,1.77313 -6.32784,4.52174 -11.22049,11.13023 -2.30734,3.11653 -4.565553,15.94436 -3.76448,21.38423 0.30197,2.0506 0.929538,6.78379 1.394595,10.51818 1.435973,11.53082 11.517141,42.66909 14.658348,45.27605 0.750497,0.62287 1.36454,1.71363 1.36454,2.42393 0,0.74423 0.969672,1.29146 2.288422,1.29146 1.258632,0 2.570732,0.45679 2.915779,1.01509 1.239793,2.00602 13.708366,6.44805 23.389549,8.3327 3.86935,0.75326 21.09375,1.24574 21.09375,0.60313 z m 19.85814,-3.95054 c 2.22646,-0.84387 7.52689,-2.46718 11.77874,-3.60735 4.25185,-1.14017 8.01357,-2.35598 8.35937,-2.70179 0.34582,-0.3458 -1.97282,-0.62874 -5.1525,-0.62874 -8.81582,0 -7.62169,-1.91653 3.125,-5.01555 3.51244,-1.01288 4.05509,-1.3762 2.16471,-1.44934 -1.38754,-0.0537 -2.75265,-0.46952 -3.03359,-0.92407 -0.28093,-0.45455 -2.23121,0.0247 -4.33396,1.0651 -2.97557,1.47219 -4.06974,1.64143 -4.93518,0.76335 -1.72372,-1.74889 1.35098,-3.47951 8.34603,-4.69764 8.17845,-1.42422 11.51691,-2.71898 9.77949,-3.79276 -0.77207,-0.47717 -2.03266,-0.43899 -3.02406,0.0916 -0.93504,0.50043 -5.05718,0.7874 -9.16032,0.63772 -6.25906,-0.22833 -7.32364,-0.49232 -6.61176,-1.63956 0.53506,-0.86229 2.07191,-1.28501 4.16042,-1.14436 2.29408,0.1545 3.89664,-0.36165 5.21445,-1.67946 1.04639,-1.04639 2.95721,-1.90252 4.24627,-1.90252 1.28906,0 2.34375,-0.42188 2.34375,-0.9375 0,-1.41859 -4.41735,-1.03683 -11.71875,1.01275 -6.2164,1.74501 -11.70075,3.15928 -15.97859,4.12044 -1.05385,0.23678 -3.79604,2.12584 -6.09375,4.19793 -2.29771,2.07208 -4.65335,3.77337 -5.23475,3.78064 -3.05381,0.0383 -5.15224,9.45507 -3.21895,14.44529 l 1.05117,2.71332 6.93933,-0.5866 c 3.81663,-0.32262 8.76096,-1.27702 10.98743,-2.12089 z M 129.40357,182.7591 c 1.42512,-2.66284 -0.56106,-3.04811 -2.26978,-0.44029 -0.82983,1.2665 -1.50879,2.51526 -1.50879,2.77503 0,1.06165 2.92969,-0.74856 3.77858,-2.33474 z m -33.549117,-2.29035 c -0.246422,-1.28906 -0.609787,-2.34375 -0.807497,-2.34375 -0.1977,0 -0.359456,1.05469 -0.359456,2.34375 0,1.28906 0.363375,2.34375 0.807497,2.34375 0.444122,0 0.605878,-1.05469 0.359456,-2.34375 z m 45.739597,-2.36063 c 0.98081,-0.52492 2.91311,-2.00148 4.29401,-3.28125 3.06196,-2.83772 0.81437,-3.28353 -2.41847,-0.4797 -1.17139,1.01594 -2.92344,2.09906 -3.89345,2.40692 -1.87569,0.59533 -2.44304,2.30841 -0.76451,2.30841 0.54953,0 1.80161,-0.42947 2.78242,-0.95438 z m -47.223163,-3.9675 c -0.260071,-0.64453 -0.472865,-0.11718 -0.472865,1.17188 0,1.28906 0.212794,1.81641 0.472865,1.17187 0.260072,-0.64453 0.260072,-1.69921 0,-2.34375 z m 37.794213,-0.74497 c -1.44756,-2.7048 -1.18875,-4.16483 0.49115,-2.77065 2.04344,1.6959 1.73813,-0.33257 -0.44296,-2.94302 l -1.84921,-2.21323 0.0798,2.34375 c 0.0439,1.28906 -0.22598,3.68772 -0.59968,5.33035 -0.61611,2.70823 -0.49698,2.93888 1.27829,2.47464 1.56356,-0.40888 1.77349,-0.85622 1.04263,-2.22184 z m 18.3422,1.85448 c 1.009,-1.6326 -0.14017,-1.97835 -1.42599,-0.42904 -0.73946,0.89099 -0.81059,1.42891 -0.18893,1.42891 0.54833,0 1.27504,-0.44994 1.61492,-0.99987 z m -15.39097,-2.06263 c -0.92589,-0.919 -1.03357,-0.81132 -0.52481,0.52481 0.35206,0.92458 0.87627,1.44489 1.16492,1.15625 0.28865,-0.28865 6e-4,-1.04512 -0.64011,-1.68106 z M 89.625,171 c -0.333649,-0.86948 -0.817572,-1.36993 -1.075385,-1.11212 -0.257812,0.25781 -0.195764,1.18014 0.137885,2.04962 0.333649,0.86947 0.817572,1.36993 1.075385,1.11212 C 90.020697,172.79181 89.958649,171.86948 89.625,171 Z m 50.0625,0.92064 c 0,-0.31865 -1.32729,-2.09106 -2.94953,-3.9387 -4.03041,-4.59038 -1.67969,-5.1585 2.88825,-0.69802 3.23422,3.15813 3.71808,3.34335 6.00814,2.29993 1.36985,-0.62415 2.49064,-1.48898 2.49064,-1.92184 0,-0.43285 0.84375,-0.78701 1.875,-0.78701 1.25,0 1.875,0.625 1.875,1.875 0,2.62957 1.43362,2.34986 6.43689,-1.25585 2.3894,-1.72196 6.2428,-4.04538 8.56311,-5.16313 2.32031,-1.11776 5.27344,-2.85704 6.5625,-3.86506 l 2.34375,-1.83276 -2.24602,-1.59046 c -1.2353,-0.87476 -2.9228,-2.4275 -3.75,-3.45055 -0.82719,-1.02303 -2.27727,-2.53808 -3.22239,-3.36676 -0.94512,-0.82867 -2.78884,-3.61606 -4.09716,-6.19418 -1.30831,-2.57813 -2.54864,-4.87298 -2.75627,-5.09969 -0.38825,-0.42388 -1.67894,1.19504 -6.24754,7.83629 -2.45219,3.5647 -8.94019,8.04465 -11.65049,8.04465 -0.65251,0 -1.18638,0.42187 -1.18638,0.9375 0,0.51562 -0.84375,1.78125 -1.875,2.8125 -2.19116,2.19116 -3.75,2.4225 -3.75,0.55652 0,-0.86199 -0.65675,-1.14674 -1.89684,-0.82245 -1.56539,0.40936 -1.67019,0.6807 -0.59975,1.55285 1.62581,1.32466 2.72682,4.33808 1.58499,4.33808 -0.46901,0 -1.11347,-0.42188 -1.43215,-0.9375 -0.78064,-1.2631 -3.28125,-1.19621 -3.28125,0.0877 0,0.5639 0.78783,1.23129 1.75074,1.4831 0.96291,0.2518 2.72252,2.53262 3.91025,5.06848 1.18774,2.53588 2.72021,4.61067 3.40552,4.61067 0.68529,0 1.24599,-0.26071 1.24599,-0.57936 z m -47.804973,-7.3625 c -0.653787,-2.33511 -1.515043,-4.24564 -1.913902,-4.24564 -0.39886,0 -0.02763,2.07261 0.824963,4.60579 1.91585,5.69231 2.709987,5.42966 1.088939,-0.36015 z m 34.614073,-4.76713 c -0.6023,-1.51787 -1.28311,-2.25581 -1.5129,-1.63986 -0.22979,0.61595 0.0314,1.95931 0.5805,2.98524 0.54907,1.02594 1.06582,3.05323 1.14834,4.5051 l 0.15003,2.63976 0.36457,-2.86524 c 0.20051,-1.57588 -0.12823,-4.10714 -0.73054,-5.625 z m -1.34066,-14.09764 c -1.76428,-5.1116 -2.18924,-7.47257 -1.47379,-8.18802 1.5307,-1.5307 1.19929,-2.89589 -0.384,-1.58187 -1.17555,0.97561 -1.78308,0.23588 -3.94802,-4.80709 -1.40728,-3.27807 -4.77464,-10.17889 -7.48303,-15.33514 -2.70839,-5.15625 -5.8888,-11.36896 -7.06759,-13.80603 -1.1788,-2.437067 -2.61626,-4.440973 -3.19436,-4.453123 -0.5781,-0.01219 -1.33967,-2.197444 -1.692362,-4.856204 -0.352697,-2.658759 -1.239047,-5.990099 -1.969679,-7.402978 -1.226578,-2.371932 -1.168706,-2.68035 0.754866,-4.02297 2.038705,-1.422992 2.041925,-1.455149 0.150206,-1.503271 -1.715559,-0.04364 -6.035681,4.370593 -6.035681,6.16717 0,0.366997 -0.68957,1.429234 -1.532378,2.360526 -1.42402,1.573524 -1.323782,2.587322 1.417524,14.33688 1.622448,6.95398 2.868816,12.97523 2.769713,13.38055 -0.0991,0.40533 0.606779,2.31898 1.568616,4.25258 1.655569,3.3282 1.987669,3.51562 6.229675,3.51562 3.47063,0 4.69968,0.40884 5.45137,1.81337 1.14958,2.14802 1.25082,6.60598 0.18804,8.28033 -0.50005,0.78781 1.22265,3.2331 5.11864,7.26562 3.2298,3.343 6.26025,6.07818 6.73433,6.07818 0.47408,0 2.06388,1.73436 3.53288,3.85413 1.46901,2.11977 2.8224,3.3997 3.00754,2.84427 0.18514,-0.55542 -0.77899,-4.24207 -2.14251,-8.19253 z m 7.00175,0.61182 c -0.0238,-1.16837 -0.30584,-1.0965 -1.40625,0.35837 -0.75704,1.00089 -1.36302,2.47746 -1.34663,3.28125 0.0238,1.16837 0.30584,1.0965 1.40625,-0.35837 0.75704,-1.00089 1.36302,-2.47746 1.34663,-3.28125 z m -0.24888,-10.61782 c -0.41713,-2.02299 2.24119,-1.62706 4.34946,0.64779 2.53904,2.73967 4.83428,3.11674 5.67268,0.93191 0.91685,-2.38927 0.66474,-3.18244 -0.8293,-2.60913 -0.85502,0.3281 -1.61014,-0.13866 -1.94343,-1.2013 -0.2998,-0.95584 -0.9654,-2.51725 -1.47912,-3.46981 -1.61174,-2.98859 0.18301,-3.08314 2.71609,-0.14308 l 2.42319,2.8125 -0.58785,-3.63178 c -0.75995,-4.69506 -1.19948,-5.04206 -4.23681,-3.34493 -1.58799,0.8873 -2.63505,2.35659 -2.82161,3.9594 -0.41397,3.55646 -2.98461,3.3594 -2.98461,-0.22877 0,-6.27415 -7.86792,-20.60474 -10.0917,-18.38098 -0.36384,0.36386 0.2458,1.37098 1.35476,2.23805 2.10462,1.64556 6.20374,10.68241 7.1631,15.79163 0.46015,2.45057 0.15695,3.2271 -1.7472,4.47474 -1.26718,0.83029 -2.30396,1.97342 -2.30396,2.5403 0,0.68134 0.48429,0.62874 1.42891,-0.15522 2.45925,-2.041 2.75728,-0.0979 0.47198,3.07722 l -2.18466,3.03534 2.91006,-2.71107 c 1.60055,-1.49109 2.82455,-3.12585 2.72002,-3.63281 z m -6.43746,-7.61037 c 1.23946,-4.92941 0.94397,-6.15 -1.08183,-4.46873 -1.88529,1.56465 -2.54817,0.30381 -1.29095,-2.45548 0.84185,-1.84767 0.83951,-2.49635 -0.01,-2.77953 -0.60951,-0.20318 -0.87582,-0.97495 -0.5918,-1.71508 0.28401,-0.74012 0.0843,-1.34568 -0.44374,-1.34568 -0.52806,0 -1.42359,2.16113 -1.99006,4.80249 -0.9225,4.30144 -0.80834,5.26912 1.09419,9.27508 1.16827,2.45992 2.35785,4.20114 2.64349,3.86938 0.28563,-0.33176 1.03748,-2.66386 1.67075,-5.18245 z m 2.9518,1.00829 c 0.008,-0.41715 -0.40753,-0.49772 -0.92315,-0.17904 -0.51563,0.31868 -0.93104,1.29279 -0.92315,2.16471 0.0124,1.36619 0.13996,1.39094 0.92315,0.17904 0.49984,-0.77344 0.91525,-1.74756 0.92315,-2.16471 z M 118.125,118.2253 c 0,-0.46046 -0.61132,-1.07178 -1.3585,-1.3585 -0.90799,-0.34843 -1.18563,-0.0708 -0.8372,0.8372 0.56902,1.48287 2.1957,1.86907 2.1957,0.5213 z m 68.24635,-6.12936 c 3.01469,-3.19615 2.7242,-5.20332 -0.50309,-3.47613 -2.65377,1.42026 -5.17114,4.60779 -4.49852,5.69612 0.96975,1.56908 1.75743,1.21947 5.00161,-2.21999 z m -69.2104,1.10719 c -0.0146,-0.64454 -1.91303,-3.20229 -4.21875,-5.68389 -4.43166,-4.76974 -5.24786,-4.83374 -2.23776,-0.17549 0.99958,1.54688 2.065,3.52159 2.36761,4.38825 0.30361,0.86954 1.13905,1.34979 1.86408,1.07157 0.72263,-0.27729 1.31387,-0.0371 1.31387,0.53363 0,0.57079 0.21094,1.0378 0.46875,1.0378 0.25781,0 0.45681,-0.52734 0.4422,-1.17187 z m 65.81016,-5.83674 c 3.37739,-2.47836 4.2626,-3.65094 3.87503,-5.13301 -0.27628,-1.05649 -0.72607,-1.92088 -0.99955,-1.92088 -0.27348,0 -2.30695,1.48293 -4.51883,3.2954 -2.50314,2.05113 -3.96867,3.99801 -3.88143,5.15625 0.18295,2.42868 0.37724,2.37953 5.52478,-1.39776 z m -59.73204,-7.634699 c 3.701,-6.733133 3.95804,-8.037923 1.91718,-9.731691 -1.54246,-1.280128 -1.86974,-2.8125 -0.60068,-2.8125 0.44306,0 2.65549,1.463903 4.91652,3.253118 4.96761,3.93101 5.07388,3.852729 9.3955,-6.92208 3.20109,-7.981054 7.16567,-13.20171 10.03265,-13.211266 4.64358,-0.01548 8.46775,-2.046802 10.96907,-5.826538 2.42376,-3.662563 2.52853,-4.210816 1.52299,-7.970374 -0.59388,-2.220498 -1.0798,-4.684406 -1.0798,-5.475351 0,-0.790946 -0.84375,-3.184445 -1.875,-5.318887 -2.35128,-4.866589 -2.45033,-9.007369 -0.23438,-9.797327 3.8571,-1.374999 3.97354,-2.134692 1.16985,-7.631843 -1.49184,-2.925011 -3.47277,-5.970735 -4.40207,-6.768275 -0.92931,-0.797541 -2.74434,-2.79762 -4.0334,-4.444619 -1.52753,-1.951686 -3.16895,-2.997506 -4.71327,-3.003051 -1.30325,-0.0047 -3.31367,-0.669807 -4.46761,-1.478063 -1.15395,-0.808256 -3.04079,-1.287583 -4.19298,-1.06517 -1.80131,0.347714 -1.73821,0.422277 0.45025,0.532055 2.26871,0.113804 5.8834,3.877671 3.72398,3.877671 -0.45546,0 -1.61246,1.739404 -2.57113,3.865342 -1.02025,2.262495 -3.21141,4.837069 -5.28409,6.208708 -3.28883,2.176441 -3.85252,2.264941 -7.91336,1.242408 -4.97851,-1.253605 -5.85223,-0.757752 -6.40841,3.636919 -0.57739,4.562282 -3.63077,7.285734 -8.99559,8.023585 -4.5158,0.62108 -4.54736,0.64926 -3.13755,2.800904 0.94929,1.448784 1.09456,2.377203 0.4357,2.784401 -0.54364,0.33599 -0.98844,1.017592 -0.98844,1.514674 0,0.497081 1.14384,0.155776 2.54186,-0.758454 1.51517,-0.990834 2.2346,-1.163704 1.78113,-0.427985 -0.47403,0.769068 -0.17268,1.664261 0.79957,2.375181 1.43686,1.050666 1.40183,1.342409 -0.44292,3.687624 -2.15087,2.734389 -7.84242,3.753371 -7.29887,1.306747 0.15151,-0.681971 -1.09764,-2.614889 -2.7759,-4.295373 -2.658839,-2.662359 -3.382467,-2.942093 -5.625004,-2.174451 -2.377249,0.813755 -2.555301,1.222705 -2.333574,5.35975 0.165915,3.095676 -0.190897,4.801485 -1.155433,5.523773 -2.121191,1.588447 0.112304,5.165632 4.755166,7.615914 2.111878,1.114548 4.798645,2.69807 5.970595,3.518936 1.95308,1.367988 2.40268,1.362848 5.38981,-0.06162 3.10451,-1.48043 3.32144,-1.468703 4.57629,0.247391 2.41499,3.302699 1.35638,6.732232 -1.26799,4.107859 -1.35051,-1.350516 -3.60175,0.278215 -4.53267,3.279303 -0.34543,1.113593 -1.3884,3.105134 -2.31773,4.425647 -3.07171,4.364755 -3.09441,6.688576 -0.10561,10.814485 1.5096,2.083947 3.05316,4.814563 3.43013,6.068038 0.37697,1.253475 2.61631,4.270456 4.97631,6.704396 5.0218,5.17916 5.21071,5.11114 9.99891,-3.599911 z m -4.50702,-16.38672 c -2.82052,-3.294119 -5.22692,-7.695946 -4.68585,-8.571412 0.54168,-0.876456 4.2378,3.638289 6.51734,7.960816 1.60815,3.049419 0.55681,3.399925 -1.83149,0.610596 z m 22.39696,-12.206055 c 1.52217,-4.795949 5.72587,-11.626418 7.34139,-11.928799 1.17513,-0.219954 1.52178,0.04408 1.05323,0.802209 -0.52316,0.846497 0.24291,0.971035 3.05288,0.496293 3.50905,-0.592849 3.79211,-0.47123 4.38303,1.883175 0.34744,1.384325 0.50572,2.592689 0.35171,2.685254 -1.93203,1.161288 -6.00616,2.422952 -7.82411,2.422952 -2.52289,0 -3.17529,-2.499347 -1.17464,-4.5 0.72219,-0.722197 0.76607,-1.125 0.12254,-1.125 -0.55135,0 -2.10022,2.53125 -3.44195,5.625 -1.34172,3.09375 -2.90186,5.625 -3.46697,5.625 -0.61999,0 -0.77748,-0.787643 -0.39711,-1.986084 z M 101.875,61.25 c -0.96478,-0.964782 -0.73884,-4.818984 0.32089,-5.473935 1.4422,-0.891332 4.43153,0.351532 5.11227,2.125516 0.92117,2.400509 -3.59673,5.184853 -5.43316,3.348419 z m 36.50655,-13.045425 c -1.23346,-3.214352 -0.62516,-6.017075 1.30595,-6.017075 1.32369,0 1.87078,-0.620214 1.86065,-2.109375 -0.008,-1.179446 -0.31801,-1.670667 -0.70313,-1.114246 -0.37882,0.547321 -2.16533,1.408096 -3.97002,1.912834 -2.94087,0.822507 -3.28125,1.254161 -3.28125,4.161122 0,2.76988 -0.34219,3.278872 -2.34375,3.486274 -1.28906,0.133573 -2.97656,-0.201422 -3.75,-0.744432 -1.20577,-0.846541 -1.10554,-1.198181 0.70312,-2.466583 2.379,-1.668381 2.84682,-3.349727 0.70313,-2.527118 -2.38549,0.915398 -1.60607,-2.065738 1.65948,-6.347154 3.11529,-4.084422 5.39119,-5.240342 10.64761,-5.407872 3.06183,-0.09759 5.63501,1.929941 4.59172,3.618018 -0.4174,0.675373 -1.16691,0.6811 -2.40522,0.01837 -0.98937,-0.529498 -2.84856,-0.699268 -4.13152,-0.377267 -2.23841,0.561805 -2.1729,0.66962 1.62139,2.668671 3.14952,1.659346 4.13651,2.808285 4.85081,5.6468 0.79884,3.174484 0.65954,3.755673 -1.27575,5.32277 -2.65299,2.148264 -5.31841,2.269308 -6.08322,0.276255 z m 42.36075,52.775565 c 4.29295,-4.374187 4.73981,-5.35514 2.43948,-5.35514 -2.33473,0 -8.80678,5.56959 -8.80678,7.57878 0,2.85039 2.11107,2.11315 6.3673,-2.22364 z m -34.46043,-4.92479 c 2.0586,-2.48047 5.55576,-10.74285 4.54704,-10.74285 -1.86792,0 -13.95391,9.239719 -13.95391,10.667747 0,0.244622 0.73828,0.637706 1.64062,0.873506 3.48046,0.909544 6.61634,0.587156 7.76625,-0.798403 z m 19.9449,-49.208609 c 1.0122,-1.445099 1.13584,-2.959133 0.51366,-6.289505 -0.97472,-5.217403 -2.06328,-6.60944 -3.94638,-5.046602 -1.98183,1.644772 -2.79777,7.400128 -1.49501,10.545269 1.31057,3.163988 3.06797,3.446028 4.92773,0.790838 z M 98.162156,41.25 c 0.540788,0 1.558716,-0.693386 2.262054,-1.540859 0.98443,-1.186158 0.36342,-1.073867 -2.697701,0.487804 C 95.539425,41.312709 93.75,42.704293 93.75,43.289354 c 0,0.615502 0.722437,0.409949 1.714444,-0.487803 C 96.407391,41.948197 97.621359,41.25 98.162156,41.25 Z M 133.48271,20.107558 c 0.32015,-0.834305 0.16299,-1.210614 -0.36844,-0.882171 -0.50972,0.315023 -0.92677,0.969747 -0.92677,1.454941 0,1.34853 0.67197,1.051371 1.29521,-0.57277 z m -1.32137,-3.669787 c 1.97051,-2.374312 0.60238,-2.944422 -1.76297,-0.734646 -1.6505,1.541943 -1.87052,2.109375 -0.81792,2.109375 0.79198,0 1.95338,-0.618628 2.58089,-1.374729 z m 3.5951,-0.993828 c -0.28865,-0.288645 -0.81286,0.231667 -1.16492,1.15625 -0.50876,1.336123 -0.40108,1.443808 0.52481,0.524807 0.64071,-0.635938 0.92876,-1.392413 0.64011,-1.681057 z m -7.75758,-0.864855 c 1.78812,-0.747128 3.25114,-1.734098 3.25114,-2.193267 0,-2.329512 10.42935,-4.1596202 11.7282,-2.058029 0.32387,0.524036 0.98158,0.710076 1.46158,0.413422 1.85521,-1.1465831 0.70958,-2.1152837 -3.19391,-2.7006484 -4.14796,-0.6220252 -6.94351,0.1214978 -10.699,2.8455754 -1.75004,1.269407 -2.10937,1.300426 -2.10937,0.18209 0,-2.0290247 6.79717,-5.439203 10.90889,-5.4730467 3.36898,-0.02773 3.49658,-0.1249834 1.82427,-1.3903634 -1.03273,-0.781433 -2.22986,-1.0266893 -2.8125,-0.5761948 -1.62688,1.2579185 -9.35175,2.9095576 -9.89431,2.1154832 C 126.96473,3.55003 124.40824,3.8754479 122.05238,6.5602279 120.69393,8.1083526 119.0187,9.375 118.32966,9.375 c -0.68905,0 -0.96335,0.4683703 -0.60956,1.040824 0.37663,0.609384 1.954,0.828121 3.80533,0.52769 3.079,-0.499651 4.34154,0.537318 1.9902,1.634611 -0.93573,0.436673 -0.93455,0.65747 0.006,1.095697 0.64775,0.301852 0.93925,0.934665 0.64779,1.40625 -0.72996,1.181112 0.0471,1.079463 3.82961,-0.500984 z M 120,13.493448 c 0,-0.202646 -0.63281,-0.368448 -1.40625,-0.368448 -0.77344,0 -1.40625,0.408635 -1.40625,0.908077 0,0.499442 0.63281,0.665244 1.40625,0.368447 C 119.36719,14.104729 120,13.696094 120,13.493448 Z M 118.125,3.75 c 0,-0.515625 -0.81885,-0.9375 -1.81967,-0.9375 -1.00082,0 -2.0804,0.421875 -2.39908,0.9375 -0.32861,0.5317107 0.45902,0.9375 1.81967,0.9375 1.31949,0 2.39908,-0.421875 2.39908,-0.9375 z M 93.75,30.614051 c 0,-1.5005 2.970441,-4.364051 4.526944,-4.364051 0.603928,0 1.098056,-0.421875 1.098056,-0.9375 0,-0.515625 -0.421875,-0.9375 -0.9375,-0.9375 -0.515625,0 -0.9375,-0.421875 -0.9375,-0.9375 0,-0.515625 0.632812,-0.9375 1.40625,-0.9375 0.977222,0 1.38292,-0.929553 1.32978,-3.046875 l -0.0765,-3.046875 -1.344161,3.075549 c -0.739294,1.691553 -2.348138,3.457258 -3.575203,3.92379 -1.227075,0.466532 -2.380757,1.191911 -2.563739,1.611951 -0.515061,1.182335 -8.336593,6.069262 -9.190069,5.741996 -1.79668,-0.688939 1.122264,-4.587973 4.827073,-6.447851 5.806028,-2.914726 7.932672,-5.17924 11.03981,-11.755506 3.067579,-6.492498 3.025639,-6.4501228 7.287389,-7.3641711 2.58853,-0.5551828 3.04687,-0.3884311 3.04687,1.1085028 0,1.783975 -1.64968,4.0119893 -2.97058,4.0119893 -0.39631,0 -0.49023,-0.6002756 -0.20869,-1.3339454 1.02885,-2.681151 -2.85177,-0.8335656 -4.51956,2.1517874 -1.45118,2.597615 -1.48653,3.063776 -0.26777,3.531458 0.79941,0.306763 1.4041,1.706838 1.4041,3.251002 0,1.491709 0.42188,2.712198 0.9375,2.712198 1.73763,0 0.95495,2.045974 -0.97583,2.550885 -1.05234,0.275192 -1.76593,0.942584 -1.58576,1.483093 0.31162,0.934859 -5.922007,7.216022 -7.16141,7.216022 -0.324225,0 -0.5895,-0.567427 -0.5895,-1.260949 z"
     id="path97271"
     inkscape:connector-curvature="0" />
</svg>
